<?xml version="1.0" encoding="utf-8"?>
<!-- Generator: Adobe Illustrator 25.0.0, SVG Export Plug-In . SVG Version: 6.00 Build 0)  -->
<svg version="1.1" id="Camada_1" xmlns="http://www.w3.org/2000/svg" xmlns:xlink="http://www.w3.org/1999/xlink" x="0px" y="0px"
	 viewBox="0 0 500 267" style="enable-background:new 0 0 500 267;" xml:space="preserve">
<style type="text/css">
	.st0{fill:#C7C7C7;}
</style>
<path id="path2" class="st0" d="M344.9,90.9c-13,0-21.3,4.9-29,17.2c-5.6-13.4-15.9-17-25.6-17c-7.4,0-17.5,2.4-23.1,12.5l-1.3-7.2
	c-0.4-1.8-1.8-3.1-3.8-3.1h-15.3c-2.2,0-3.8,1.6-3.8,3.8v84.1c0,2.2,1.6,3.8,3.8,3.8h18c2.2,0,3.8-1.6,3.8-3.8v-45.2
	c0-10.3,5.2-20.3,15.3-20.3c10.4,0,15.3,8,15.3,20.1v45.4c0,2.2,1.6,3.8,3.8,3.8h17.7c2.2,0,3.8-1.6,3.8-3.8v-45.4
	c0-10.3,4.7-19.5,14.8-19.5c10.3,0,14.8,7.6,14.8,19.2v45.8c0,2.2,1.6,3.8,3.8,3.8H376c2.2,0,3.8-1.6,3.8-3.8v-46.5
	C379.6,100.6,363.1,90.9,344.9,90.9L344.9,90.9z M182.6,90.3c-10.8,0-21.1,3.4-29,13.2V52.9c0-2.2-1.6-3.8-3.8-3.8h-19.3
	c-2.2,0-3.8,1.6-3.8,3.8v128.1c0,2.2,1.6,3.8,3.8,3.8h16.9c2,0,3.4-1.4,3.8-3.3l1.3-8.5c8.6,11,19.1,13.7,30.6,13.7
	c27,0,45.6-19.4,45.6-48.1C228.5,108.6,209.8,90.3,182.6,90.3L182.6,90.3z M179.9,162.3c-13.1,0-23.8-10.7-23.8-23.9
	s10.6-23.9,23.8-23.9c13.2,0,23.8,10.7,23.8,23.9C203.5,151.6,192.9,162.3,179.9,162.3z M327.4,47.5c-4,0-6.7,1.8-8.1,3.8V40.8
	c0-0.4-0.4-0.7-0.7-0.7h-4.3c-0.4,0-0.7,0.4-0.7,0.7v32c0,0.4,0.4,0.7,0.7,0.7h4c0.4,0,0.7-0.3,0.7-0.7v-3.4
	c1.6,2.5,4.7,4.2,8.5,4.2c7.4,0,11.7-6,11.7-13S334.8,47.5,327.4,47.5L327.4,47.5z M326.2,68.4c-4.3,0-7-3.4-7-8s2.7-8,7-8
	c4.3,0,7,3.4,7,8C333.4,65,330.7,68.4,326.2,68.4z M388.7,47.5c-4.1,0-6.7,2-7.7,3.8v-2.4c0-0.4-0.4-0.7-0.7-0.7h-4
	c-0.4,0-0.7,0.4-0.7,0.7V73c0,0.4,0.4,0.7,0.7,0.7h4.3c0.4,0,0.7-0.4,0.7-0.7V58.7c0-4,2.3-6.1,5.9-6.1c2.7,0,4.9,2.4,4.9,5.1V73
	c0,0.4,0.4,0.7,0.7,0.7h4.3c0.4,0,0.7-0.4,0.7-0.7V57.4C398,51.6,394.8,47.5,388.7,47.5L388.7,47.5z M415.7,52.5c2.9,0,5,1.6,5.9,4
	v0.2c0,0.4,0.4,0.5,0.7,0.5h4.3c0.4,0,0.7-0.4,0.7-0.7c0,0,0-1.4-1.1-3.3v-0.2l-0.2-0.2c0-0.2-0.2-0.2-0.2-0.4
	c-0.9-1.3-2.1-2.4-3.4-3.3c-2-1.2-4.3-1.8-6.7-1.8c-7.4,0-12.6,5.8-12.6,13s5.2,13,12.6,13c2.7,0,5-0.7,6.7-1.8c0,0,2-1.1,3.4-3.3
	c0,0,0-0.2,0.2-0.2l0.2-0.2v-0.2c1.1-1.8,1.1-3.3,1.1-3.3c0-0.4-0.4-0.7-0.7-0.7h-4.3c-0.4,0-0.5,0.2-0.7,0.5v0.2
	c-0.9,2.4-3.1,4-5.9,4c-4.1,0-6.7-3.3-6.7-8C408.8,56,411.5,52.5,415.7,52.5L415.7,52.5z M444.3,47.5c-7.9,0-13,6-13,13s5,13,13,13
	c8.1,0,13.1-6,13.1-13S452.2,47.5,444.3,47.5z M444.3,68.4c-4.1,0-7.2-3.1-7.2-8s3.1-8,7.2-8c4.1,0,7.4,3.1,7.4,8
	C451.5,65.4,448.4,68.4,444.3,68.4z M367.8,48.2h-4c-0.4,0-0.7,0.4-0.7,0.7v2.9c-1.6-2.5-4.5-4.2-8.5-4.2c-7.4,0-11.7,6-11.7,13
	c0,7.1,4.1,13,11.7,13c4,0,6.8-1.4,8.5-4.2V73c0,0.4,0.4,0.7,0.7,0.7h4c0.4,0,0.7-0.4,0.7-0.7V48.9
	C368.5,48.4,368.3,48.2,367.8,48.2z M355.9,68.4c-4.3,0-7-3.4-7-8s2.7-8,7-8c4.3,0,7,3.4,7,8C363.1,65,360.4,68.4,355.9,68.4z"/>
<path id="path4" class="st0" d="M50.2,99.7c0-4.5,4.1-8.1,8.6-7.4c24.1,3.6,42.7,24.6,42.7,49.7c0,39.4-31.5,48.1-45.2,49.9
	c-3.2,0.4-6.1-2.2-6.1-5.4V99.7z"/>
<path id="path6" class="st0" d="M10.4,145.1h22.5c9.5,0,17.3-7.8,17.3-17.4V50c0-3.1-2.5-5.6-5.6-5.6H34.2
	C18,44.4,4.8,57.6,4.8,73.9v65.7C4.8,142.6,7.4,145.1,10.4,145.1z M475.3,172.6c13.7-7.1,19.8-19.7,20.4-33.3
	c0-11.4-2.9-20.6-7.9-28l8.6-9.9c1.4-1.6,1.1-4.2-0.5-5.6l-13.9-10.7c-1.8-1.3-4.1-0.9-5.4,0.7l-7.4,9.8c-7.4-3.3-15.5-5.1-23.6-5.1
	c-26.3,0-51,16.1-51,48.5c0,29.5,20.2,47.9,51.2,47.9c17.1,0,22.9,7.1,22.9,16.3c0,11.8-11.2,17.5-23.4,17.5
	c-11.7,0-21.3-4-23.4-16.1c-0.4-1.8-2-3.3-3.8-3.3h-18.2c-2.2,0-4,1.8-4,4.2c1.3,24.8,18.2,39.4,49.4,39.4c25.9,0,51.3-13.6,51.3-42
	C496.4,197.6,496.4,182,475.3,172.6L475.3,172.6z M445,162.1c-13.2,0-23.6-10.7-23.6-23.7c0-13.2,10.6-23.7,23.6-23.7
	c13,0,23.6,10.7,23.6,23.7C468.8,151.5,458.2,162.1,445,162.1z"/>
</svg>
