<?xml version="1.0" encoding="utf-8"?>
<!-- Generator: Adobe Illustrator 25.0.0, SVG Export Plug-In . SVG Version: 6.00 Build 0)  -->
<svg version="1.1" id="Camada_1" xmlns="http://www.w3.org/2000/svg" xmlns:xlink="http://www.w3.org/1999/xlink" x="0px" y="0px"
	 viewBox="0 0 500 267" style="enable-background:new 0 0 500 267;" xml:space="preserve">
<style type="text/css">
	.st0{fill:#C7C7C7;}
</style>
<path class="st0" d="M28.5,135.6c0.3-0.7,0.3-1.5,0.4-2.2c1.1-13,5.9-24.5,14.3-34.4c8.8-10.5,20-17.3,33.2-20.7
	c6.4-1.6,12.9-2.2,19.4-1.8c13.8,0.9,26,5.7,36.7,14.5c6.7,5.5,12.1,12.2,16,20c3.2,6.5,5.3,13.3,6.1,20.5c1.2,11-0.5,21.6-5,31.8
	c-2.8,6.2-6.5,11.8-11.2,16.7c-8.8,9.3-19.4,15.4-31.8,18.5c-6.3,1.5-12.6,2-19,1.6c-6.6-0.4-13-1.9-19.2-4.3
	c-0.4-0.2-0.9-0.3-1.3-0.5c-0.9-0.3-0.9-0.3-1,0.7c0,0.3,0,0.6,0,0.9c0,11.6,0,23.2,0,34.7c0,0.5,0,1.1-0.1,1.6c-12.5,0-25,0-37.4,0
	C28.5,200.7,28.5,168.2,28.5,135.6z M91.8,163.6c1.3-0.1,2.5-0.1,3.7-0.3c5.4-0.8,10.2-3,14.1-6.7c6.2-6,8.8-13.3,7.7-21.9
	c-0.8-6.1-3.7-11.1-8.3-15.1c-6-5.2-13-7.2-20.9-6.2c-5.3,0.7-9.9,2.9-13.8,6.5c-5.7,5.3-8.5,11.9-8.1,19.8
	c0.2,3.7,1.1,7.1,2.9,10.3C74,158.9,81.7,163.2,91.8,163.6z"/>
<path class="st0" d="M385.3,233.2c-0.3-0.6-0.2-1.2-0.2-1.8c0-12.3,0-24.7,0-37c0-15.5,0-31.1,0-46.6c0-1.8,0-1.8,1.9-1.8
	c6.1,0,12.3,0,18.4,0c1,0,1.6,0.3,2.2,1.1c12.6,16.9,25.3,33.7,37.9,50.5c0.2,0.3,0.4,0.6,0.9,1c0-0.6,0-1,0-1.4
	c0-16.4,0-32.9,0-49.3c0-1.9,0-1.9,1.8-1.9c6.1,0,12.1,0,18.2,0c1.7,0,1.7,0,1.7,1.7c0,28,0,56,0,83.9c0,0.5,0,1.1-0.2,1.6
	c-7.1,0-14.3,0-21.4,0c-0.1-0.4-0.4-0.7-0.7-1.1c-3.4-4.6-6.8-9.1-10.2-13.7c-9.3-12.4-18.5-24.8-27.8-37.1
	c-0.2-0.3-0.4-0.6-0.8-0.9c0,0.5,0,1,0,1.4c0,14.9,0,29.8,0,44.8c0,2.2,0,4.4,0,6.6C399.6,233.2,392.4,233.2,385.3,233.2z"/>
<path class="st0" d="M276.6,233.2c-0.2-0.5,0.1-0.8,0.3-1.2c4.1-9.9,8.3-19.8,12.4-29.6c6.1-14.5,12.1-29,18.2-43.5
	c1.6-3.8,3.2-7.7,4.8-11.5c0.1-0.2,0.2-0.5,0.3-0.7c0.2-0.5,0.6-0.7,1.1-0.7c0.3,0,0.5,0,0.8,0c6.6,0,13.3,0,19.9,0c0,0,0.1,0,0.1,0
	c1.1-0.2,1.6,0.3,2,1.3c0.6,1.6,1.3,3.1,1.9,4.6c6.3,15,12.6,30.1,18.9,45.1c4.9,11.6,9.7,23.1,14.5,34.7c0.2,0.5,0.6,0.9,0.3,1.5
	c-7.3,0-14.6,0-21.9,0c-0.1-0.2-0.1-0.5-0.2-0.7c-2-4.9-4-9.7-6-14.6c-0.4-0.9-0.5-0.9-1.5-0.7c-5.8,1.2-11.6,1.6-17.5,1.8
	c-2.7,0.1-5.5-0.2-8.2-0.3c-3.5-0.3-7-0.8-10.5-1.4c-1.2-0.2-1.3-0.2-1.7,0.9c-1.3,3-2.5,6.1-3.8,9.1c-0.8,2-1.7,4-2.6,6.1
	C291,233.2,283.8,233.2,276.6,233.2z M324.5,170.6c-0.3,0.1-0.3,0.4-0.4,0.6c-3.7,8.9-7.4,17.8-11.1,26.7c-0.1,0.2-0.1,0.3-0.2,0.5
	c-0.2,0.5,0,0.7,0.4,0.8c0.1,0,0.3,0.1,0.4,0.1c2.8,0.3,5.7,0.6,8.5,0.7c4.3,0.1,8.6-0.1,12.8-0.7c1.2-0.2,1.3-0.2,0.8-1.4
	c-3.6-8.8-7.2-17.6-10.8-26.4C324.8,171.1,324.8,170.7,324.5,170.6z"/>
<path class="st0" d="M206.9,233.2c0-0.5,0-1.1,0-1.6c0-27.9,0-55.8,0-83.6c0-0.4,0-0.9,0-1.3c0-0.4,0.3-0.7,0.7-0.7
	c0.3,0,0.5,0,0.8,0c13.5,0,27.1,0,40.6,0c5.9,0,11.6,1.2,16.9,4c6.9,3.7,11.6,9.4,13.8,16.9c2.5,8.3,1.8,16.5-1.9,24.3
	c-3.4,7.2-9,12-16.5,14.8c-3.9,1.4-7.9,2.2-12.1,2.2c-6.4,0-12.8,0-19.2,0c-0.3,0-0.6,0-0.9,0c-0.8,0-0.9,0.1-1,0.9c0,0.3,0,0.6,0,1
	c0,7.1,0,14.3,0,21.4c0,0.6,0.1,1.2-0.2,1.7C220.9,233.2,213.9,233.2,206.9,233.2z M228.1,176.5c0,3.6,0,7.2,0,10.8
	c0,1.2,0.1,1.3,1.3,1.3c5.7,0,11.3,0,17,0c1,0,2.1-0.1,3.1-0.3c5.5-1.2,9.4-4.7,10.1-10.3c0.6-4.9-1.4-9.4-6-11.8
	c-2.4-1.3-5-1.8-7.7-1.8c-4.5,0-9.1,0-13.6,0c-1,0-2.1,0-3.1,0c-0.8,0-0.9,0.2-1,1c0,0.3,0,0.6,0,0.9
	C228.1,169.7,228.1,173.1,228.1,176.5z"/>
<path class="st0" d="M63.6,24.4c0,11.2,0,22.3,0,33.5c0,0.2,0,0.4,0,0.6c0,0.4-0.3,0.6-0.7,0.7c-0.3,0-0.6,0-0.9,0
	c-10.6,0-21.3,0-31.9,0c-0.5,0-1.1,0-1.6-0.2c0-11.5,0-23,0-34.6C40.2,24.4,51.9,24.4,63.6,24.4z"/>
<path class="st0" d="M472.1,109.7c-0.3,0.6-0.2,1.2-0.3,1.8c-0.8,3.7-2.5,7.1-5,9.9c-3.2,3.7-7.2,6.1-12,7c-6.8,1.3-13-0.2-18.3-4.6
	c-5.5-4.6-8.1-10.7-7.8-17.8c0.2-4.9,2-9.3,5.3-13.1c3.8-4.4,8.7-7,14.5-7.5c6.2-0.6,11.7,1.2,16.4,5.3c3.7,3.2,6,7.2,7,12
	c0.1,0.6,0,1.2,0.3,1.7C472.1,106.1,472.1,107.9,472.1,109.7z M461.5,107c0.3-6.1-5-11.2-11-11.2c-5.8,0-11.2,4.7-11.2,11.2
	c0,6.5,5.5,11.2,11.1,11.2C456.6,118.2,461.7,112.8,461.5,107z"/>
<path class="st0" d="M326.5,102.8c-0.2,0.5-0.1,0.9-0.1,1.3c0,7.6,0,15.3,0,22.9c0,1.7,0,1.7-1.7,1.7c-2.5,0-5,0-7.6,0
	c-1.6,0-1.6,0-1.6-1.6c0-4.1,0-8.1,0-12.2c0-9.3,0-18.7,0-28c0-1.7,0-1.7,1.7-1.7c2.6,0,5.3,0,7.9,0c0.8,0,1.4,0.2,2,0.9
	c3.8,4.6,7.6,9.1,11.4,13.7c3.1,3.7,6.1,7.3,9.2,11c0.1,0.2,0.3,0.4,0.6,0.4c0.3-0.3,0.1-0.7,0.1-1.1c0-7.6,0-15.3,0-22.9
	c0-2.1-0.1-1.9,2-1.9c2.6,0,5.1,0,7.7,0c1.1,0,1.2,0.1,1.2,1.2c0,3.8,0,7.6,0,11.4c0,9.7,0,19.4,0,29.1c0,2.2-0.1,1.9-2,1.9
	c-2.5,0-5,0-7.6,0c-0.9,0-1.6-0.3-2.2-1c-6.8-8.2-13.6-16.3-20.4-24.5C327,103.1,326.9,102.9,326.5,102.8z"/>
<path class="st0" d="M206.9,107c0-6.7,0-13.5,0-20.2c0-1.6,0-1.6,1.6-1.6c5.6,0,11.1,0,16.7,0c2.4,0,4.7,0.3,6.9,1.1
	c4.9,1.6,7.2,5,7.5,10c0.2,3.3-0.9,6.2-3.1,8.6c-0.6,0.6-0.6,0.7,0.1,1.1c3.7,2.4,5.2,6,5.2,10.2c0,1.5-0.2,3-0.7,4.5
	c-1.1,3.1-3.2,5.3-6.1,6.6c-2.3,1-4.7,1.5-7.1,1.5c-6.6,0-13.1,0-19.7,0c-1.3,0-1.3-0.1-1.3-1.3C206.9,120.6,206.9,113.8,206.9,107z
	 M221.9,103.1C221.9,103.1,221.9,103.1,221.9,103.1c1.2,0,2.3,0,3.5,0c0.8,0,1.6-0.1,2.3-0.4c1-0.3,1.7-1,2.1-2.1
	c0.4-1.1,0.4-2.2,0.2-3.3c-0.2-1.3-1-2.1-2.2-2.6c-0.7-0.3-1.4-0.5-2.2-0.5c-2.5,0-5,0-7.6,0c-0.9,0-1,0.1-1,1c0,2.3,0,4.5,0,6.8
	c0,0.9,0.1,1,1,1C219.2,103.2,220.6,103.1,221.9,103.1z M222.4,111.4C222.4,111.4,222.4,111.4,222.4,111.4c-1.4,0-2.8,0-4.2,0
	c-1.2,0-1.2,0.1-1.2,1.2c0,1.9,0,3.9,0,5.8c0,1.1,0.1,1.1,1.2,1.1c2.6,0,5.1,0,7.7,0c0.7,0,1.4-0.1,2.1-0.3c2.4-0.6,3.6-2.5,3.1-5
	c-0.3-1.2-0.9-2-2.1-2.4c-0.8-0.3-1.6-0.5-2.4-0.5C225.1,111.4,223.7,111.4,222.4,111.4z"/>
<path class="st0" d="M297,128.8c-1.5,0-3,0-4.4,0c-0.7,0-1-0.3-1.3-0.9c-0.8-2-1.6-4.1-2.5-6.1c-0.4-1-0.4-1-1.5-0.8
	c-2.7,0.5-5.5,0.8-8.3,0.8c-2.7,0-5.4-0.2-8.1-0.7c-1.9-0.3-1.5-0.7-2.3,1.2c-0.7,1.8-1.5,3.6-2.2,5.4c-0.3,0.8-0.7,1.1-1.6,1.1
	c-3,0-5.9,0-8.9,0c-0.2,0-0.4,0-0.6,0c-0.3,0-0.4-0.2-0.3-0.5c0.1-0.2,0.2-0.5,0.3-0.7c4.7-11.2,9.5-22.5,14.2-33.7
	c1.1-2.6,2.2-5.1,3.2-7.7c0.3-0.7,0.7-1,1.5-1c3.1,0,6.2,0,9.3,0c0.9,0,1.3,0.4,1.7,1.2c3,7.4,6.1,14.7,9.2,22.1
	c2.6,6.2,5.2,12.4,7.8,18.6c0.8,1.8,0.8,1.8-1.2,1.8C299.5,128.8,298.3,128.8,297,128.8z M279,97.8c-0.4,0.1-0.4,0.3-0.5,0.5
	c-1.7,4.1-3.4,8.2-5.1,12.4c-0.3,0.7-0.2,0.8,0.6,0.9c2.9,0.4,5.8,0.3,8.7,0.1c0.4,0,0.8-0.1,1.2-0.2c0.4,0,0.6-0.2,0.4-0.6
	c-0.1-0.2-0.2-0.4-0.2-0.6c-1.3-3.1-2.5-6.3-3.8-9.4C279.9,99.9,279.4,98.9,279,97.8z"/>
<path class="st0" d="M398.3,128.7c-6.1,0.1-11.3-2.1-15.6-6.4c-4.5-4.5-6.7-10.1-6.3-16.5c0.6-10.6,8.3-18.5,17.6-20.3
	c7.4-1.4,13.9,0.6,19.5,5.6c0.6,0.6,1.2,1.3,1.7,1.9c0.5,0.6,0.5,0.8-0.2,1.2c-1.4,1-2.8,1.9-4.2,2.9c-1,0.7-2,1.4-3,2.1
	c-0.8,0.5-0.9,0.5-1.6-0.2c-1.7-1.7-3.6-2.7-5.9-3.2c-5.9-1.2-11.9,2.8-13,8.8c-1.2,6.1,2.7,12,8.8,13.1c3.7,0.7,7-0.2,9.8-2.8
	c1.1-1.1,0.9-1.1,2.3-0.2c2.2,1.5,4.3,3,6.5,4.5c1,0.7,1,0.7,0.2,1.7c-3.4,4.1-7.8,6.5-13.1,7.4c-0.5,0.1-0.9,0.2-1.4,0.2
	C399.7,128.8,399,128.7,398.3,128.7z"/>
</svg>
