<?xml version="1.0" encoding="utf-8"?>
<!-- Generator: Adobe Illustrator 25.0.0, SVG Export Plug-In . SVG Version: 6.00 Build 0)  -->
<svg version="1.1" id="Camada_1" xmlns="http://www.w3.org/2000/svg" xmlns:xlink="http://www.w3.org/1999/xlink" x="0px" y="0px"
	 viewBox="0 0 500 188.6" style="enable-background:new 0 0 500 188.6;" xml:space="preserve">
<style type="text/css">
	.st0{fill-rule:evenodd;clip-rule:evenodd;fill:#C7C7C7;}
</style>
<g id="Desk">
	<g id="Home-Safra" transform="translate(-130 -49)">
		<g id="HEADER" transform="translate(0 45)">
			<g id="LOGO" transform="translate(130 4)">
				<path id="Fill-1" class="st0" d="M235.3,74.7c0.2-8.2-6.5-15.8-20.7-16c-10.1-0.1-17.5,3.4-18.2,11.7c-0.5,7,1.8,8.3,6.3,10.2
					c2.3,2.5,21.4,5.6,25.2,6.3c5.5,1,17.4,3.5,23.7,10c11.6,12.3,6.2,36.4-6.3,44.6c-8.6,5.6-20.3,6.9-31.4,7.1
					c-5.1,0.1-17.2-1.7-24.7-7.1c-8.9-6.5-13.4-16.6-14-26.2h20.1c0,2.6,0.8,6.8,4.3,10.5c4.5,4.8,12,6.3,18.9,6
					c6.9-0.1,13.3-2.2,16-4.8c4.4-4.2,5.4-12.1,0.4-17.1c-6.6-7-26.4-7-39.4-11.5c-10.9-3.8-19.8-11.7-18.2-28.1
					c1.6-16.2,13.2-28.2,37.7-28.2c5.4,0,24.1,0.4,33.9,13c5.3,6.8,6.6,16.3,5.8,19.6L235.3,74.7L235.3,74.7z"/>
				<path id="Fill-3" class="st0" d="M309.4,109.9c-5.5,3.3-12.9,3.1-17.9,4c-5.9,1.1-10.1,6.2-8.4,12.3c1.1,4.5,4.5,7.6,12.8,6.3
					c11.4-1.8,13.5-9.9,13.5-18.3V109.9L309.4,109.9z M311.6,145.4c-1.4-1.8-2.2-4.9-2.1-7.5c-6.7,6.4-12.7,10.7-24,10.7
					c-15.2,0-22.6-8.6-22.1-23.3c0.4-10.6,4.6-20.9,21.6-23.9c7.1-0.3,14.9-1.9,19.4-3.5c3.4-1.2,5.1-4.9,4.8-8.5
					c0-4.7-3.9-6.8-12.7-6.8c-11,0-12.4,6.8-12.6,12.3h-18.2c0.3-24.1,20.7-26.3,30.9-26.3c7.4,0,13.9,1.2,17.7,2.8
					c7.4,3.1,13.3,9.2,13.3,21.2v41.3c-0.1,3.3,1.8,6.7,4.3,8.9v2.7H311.6L311.6,145.4z"/>
				<path id="Fill-5" class="st0" d="M335.3,71.4h10.5v-8.8c0-11.3,5.7-18.8,18.2-18.8h12v14.5h-6.7c-2.6,0-4.2,1.7-4.2,5.2v7.9
					h11.5v12.9h-11.5v61.1h-19.3v-61h-10.5L335.3,71.4L335.3,71.4z"/>
				<path id="Fill-7" class="st0" d="M384.9,69.8h19.3v14.6h0.2c1.2-4.5,2.2-7.1,9-11.9c3.3-2.5,7.7-5,13.8-4v19.9
					c-8.2-1-20.7-2.1-23,14.3v42.5h-19.3L384.9,69.8L384.9,69.8z"/>
				<path id="Fill-9" class="st0" d="M476.4,109.9c-5.5,3.3-12.9,3.1-17.9,4c-6,1.1-10.1,6.2-8.4,12.3c1.1,4.5,4.6,7.6,12.8,6.3
					c11.5-1.8,13.5-9.9,13.5-18.3L476.4,109.9L476.4,109.9z M478.6,145.4c-1.4-1.8-2.2-4.9-2.1-7.5c-6.7,6.4-12.6,10.7-24,10.7
					c-15.2,0-22.6-8.6-22.1-23.3c0.4-10.6,4.5-20.9,21.6-23.9c7.1-0.3,14.9-1.9,19.4-3.5c3.5-1.2,5.1-4.9,4.8-8.5
					c0-4.7-3.9-6.8-12.6-6.8c-11,0-12.4,6.8-12.7,12.3h-18.2c0.2-24.1,20.6-26.3,30.9-26.3c7.4,0,13.9,1.2,17.7,2.8
					c7.4,3.1,13.3,9.2,13.3,21.2v41.3c-0.1,3.3,1.8,6.7,4.3,8.9v2.7H478.6L478.6,145.4z"/>
				<path id="Fill-12" class="st0" d="M74.6,103.6c-0.3-6.9-2.9-11.1-5.5-13.6h0c3.4,0,8.1,3,8.1,7.7
					C77.3,100.3,76.4,102.3,74.6,103.6z M63.2,116.9v-6.6c2.4,0,4.7-0.3,6.6-0.7C68.9,114.1,66.3,116.3,63.2,116.9L63.2,116.9z
					 M53.9,109.2c1.2,0.4,2.8,0.8,4.9,1v6.6C56.3,115.9,54.2,113.4,53.9,109.2z M53.8,90h4.9V106c-1.8-0.2-3.4-0.7-4.9-1.3V90
					L53.8,90z M46.2,79.2c0-2.4,1.1-4.5,3.2-6V85C47.4,83.8,46.2,81.6,46.2,79.2z M58.8,60.6v6.1c-1.6,0-3.2,0.2-4.7,0.5
					C54.6,64.2,56.3,61.7,58.8,60.6z M68.2,68.1c-1.3-0.5-3-0.9-5.1-1.2v-6.5C65.6,61.2,67.5,63.6,68.2,68.1z M63.2,85.7V71
					c1.8,0.2,3.6,0.7,5.3,1.3C68.3,78.7,65.1,84.6,63.2,85.7z M53.8,71.3c1.4-0.3,3.1-0.5,4.9-0.6v15.2h-4.9V71.3z M70.3,105.5
					c-1.9,0.4-4.3,0.7-7.1,0.7V90c2,0.4,7.1,5.4,7.1,15V105.5z M68.5,85.9h-0.2c2.2-2.8,4-7.1,4.5-11.6c1.5,0.9,3,2,4.1,3.2
					c0.6,0.6,0.9,0.9,1.3,0.9c0.9,0,1.3-0.7,0.9-1.5c-1.2-1.9-1.6-3.6-1.6-5.7c0-1.3,0.4-2.5,0.7-3.3c0.3-0.7,0-1.5-0.9-1.5
					c-0.7,0-0.9,0.6-1.2,1c-0.5,1-1.7,1.9-3.3,1.9c-0.6-8.1-4.7-12-8.9-13.1c1.5-3.6,5.3-5.9,10.2-6.9c0.7-0.1,1.3-0.4,1.3-1
					c0-0.7-0.6-1-1.3-1c-1.6,0-4,0.9-5.9,1.5c-2.9,0.9-5.5,1.5-7.7,1.5c-4.7,0-8.8-2.1-10.2-2.1c-0.6,0-1,0.4-1,1
					c0,0.4,0.3,0.9,1.2,1.2c3.9,1.3,6.5,3.3,7.6,6.1c-2.3,0.8-4.3,2.6-5.6,4.9C50.9,58.4,48.9,57,46,57c-2.8,0-5,2.1-5,4.6
					c0,1.8,1.2,3.1,2.5,3.1c0.6,0,0.9-0.3,0.9-0.7c0-0.6-0.3-0.7-0.3-1.6s0.7-1.6,1.9-1.6c1.8,0,3.4,1.8,3.4,6.7v1.2
					c-4.7,2.1-7.7,5.8-7.7,10.7c0,5.1,3.3,8.9,7.7,10.2v12.6c-3.3-2.7-5.2-6.2-6.3-8.7c-0.3-0.6-0.6-1.3-1.3-1.3
					c-0.9,0-1.2,0.9-0.7,1.9c0.4,1,0.7,2.7,0.7,4.2c0,1.8-0.6,3.4-1.8,4.6c-0.6,0.6-1,1-1,1.5c0,0.6,0.4,0.9,0.9,0.9
					c0.9,0,1.9-1,3.8-1c1.2,0,2.7,0.6,5,2.1l0.7,0.4v3.9c0,2.1-0.9,3.4-2.7,3.4c-1.2,0-1.9-0.9-1.9-2.1c0-0.9,0.6-1.2,0.6-1.6
					c0-0.4-0.3-0.7-0.9-0.7c-0.9,0-2.4,1.3-2.4,3.6c0,2.1,1.5,4.6,4.6,4.6c1.7,0,3.4-0.5,5-2.1c1.4,2.3,3.9,4.4,6.8,5.2
					c-0.8,3.9-3.5,7.2-7.3,7.2c-1.9,0-2.9-1-2.9-2.4c0-1,0.7-1.6,1.3-1.9c0.7-0.3,1.3-0.4,1.3-1.3c0-0.4-0.3-1-1.8-1
					c-2.7,0-4.9,2.4-4.9,5.2c0,3.1,2.2,6.1,6.8,6.1c3.9,0,7.3-1.9,9.4-4.4c2.5,2.1,6.3,3.8,8.3,3.8c0.6,0,1.2-0.3,1.2-0.9
					s-0.6-1-1.2-1.3c-3.4-1.8-5.6-4.3-5.6-8.8v0c5.3-1,10.2-5.3,11.3-12.7c4.8-2.1,7.3-5.6,7.3-10.5C81.8,90.7,75.3,85.9,68.5,85.9
					L68.5,85.9z M93.6,128c-5.2,0-8.6-3-8.6-7.4c0-3.7,2.5-6.7,5.5-6.7c1.2,0,2.2,0.4,2.2,1.6c0,0.7-0.3,1.3,0.4,1.3
					c0.4,0,0.9-0.4,0.9-1.6c0-1.5-1.3-2.7-3.2-2.7h-0.4c0.3-0.6,0.3-1.2,0.3-1.3c0-1.3-1-2.1-2.1-2.1c-1,0-2.1,0.6-2.1,1.3
					c0,0.3,0.1,0.4,0.4,0.4c0.4,0,0.6-0.4,1.3-0.4c0.6,0,1,0.3,1,1c0,1-0.9,1.5-1.6,1.9c-2.4,1.3-4,4-4,7.1c0,4.2,2.4,6.8,5.8,8
					l-2.2,3.4c-2.9,0-4.4,2.2-7.1,7c-0.3-1.2-1.2-2.1-2.7-2.1c-1.6,0-2.7,1.2-2.7,2.8c0,0.4,0.3,0.7,0.6,0.7c0.4,0,0.7-0.3,0.7-0.7
					c0-0.7,0.4-1.5,1.3-1.5c1,0,1.5,0.7,1.5,1.6c0,1-0.1,1.6-0.9,2.8c-3.1,5.1-7.4,7.6-11.1,7.6c-3.2,0-5.2-1.9-5.2-3.9
					c0-1.8,1-3.3,2.8-3.3c1.2,0,1.9,0.7,1.9,1.8c0,0.9-0.7,0.9-0.7,1.3c0,0.3,0.3,0.4,0.6,0.4c0.9,0,1.5-1,1.5-2.1
					c0-1.6-1.3-2.8-3.2-2.8c-1.8,0-3.2,1.2-3.7,2.4c-0.4-1.2-1.9-2.4-3.7-2.4c-1.9,0-3.2,1.2-3.2,2.8c0,1,0.6,2.1,1.5,2.1
					c0.3,0,0.6-0.1,0.6-0.4c0-0.4-0.7-0.4-0.7-1.3c0-1,0.7-1.8,1.9-1.8c1.8,0,2.8,1.5,2.8,3.3c0,1.9-1.9,3.9-5.2,3.9
					c-3.7,0-8-2.5-11.1-7.6c-0.7-1.2-0.9-1.8-0.9-2.8c0-0.9,0.4-1.6,1.5-1.6c0.9,0,1.3,0.7,1.3,1.5c0,0.4,0.3,0.7,0.7,0.7
					c0.3,0,0.6-0.3,0.6-0.7c0-1.6-1-2.8-2.7-2.8c-1.5,0-2.4,0.9-2.7,2.1c-2.7-4.8-4.1-7-7.1-7l-2.2-3.4c3.4-1.2,5.8-3.9,5.8-8
					c0-3.1-1.6-5.8-4-7.1c-0.7-0.4-1.6-0.9-1.6-1.9c0-0.7,0.4-1,1-1c0.7,0,0.9,0.4,1.3,0.4c0.3,0,0.4-0.1,0.4-0.4
					c0-0.7-1-1.3-2.1-1.3c-1,0-2.1,0.7-2.1,2.1c0,0.1,0,0.7,0.3,1.3h-0.4c-1.9,0-3.2,1.2-3.2,2.7c0,1.2,0.4,1.6,0.9,1.6
					c0.7,0,0.4-0.6,0.4-1.3c0-1.2,1-1.6,2.2-1.6c2.9,0,5.5,3,5.5,6.7c0,4.5-3.4,7.4-8.6,7.4c-6.1,0-10.6-4.5-10.6-10.8
					c0-6.1,3.5-10.3,7.5-14l3.4-3.3c4.3-4,6.1-8.2,6.1-13.4c0-5.7-3.4-12-10.5-15.1c1.5-0.4,2.4-1.9,2.4-3.7c0-1.2-0.4-1.9-0.4-2.8
					c0-1.8,1-2.8,2.5-2.8c1.3,0,2.2,1,2.2,2.1c0,0.9-0.6,1.6-1.6,1.6c-0.4,0-0.7,0-0.7,0.4c0,0.4,0.4,0.6,1,0.6
					c1.8,0,2.7-1.5,2.7-2.2c0.3,0.1,0.6,0.3,1,0.3c1,0,1.8-0.7,1.8-1.8c0-0.3-0.1-0.7-0.6-0.7c-0.3,0-0.4,0.3-0.4,0.6
					c0,0.4-0.3,0.7-0.7,0.7c-0.6,0-1-0.4-1.3-1c-0.6-1-1.8-1.9-3.2-1.9c-1.9,0-3.4,1.3-3.7,3.1c-0.9-0.9-1.9-1.8-3.4-2.7
					c1.2-0.7,2.2-1.3,3.4-2.2c1.8-1.3,3.4-2.8,5.2-4.8l8.1-8.9c7.1-7.9,11.7-9.9,16.1-9.9c3.8,0,5.8,1.9,5.8,4.2
					c0,1.6-0.7,2.9-1.8,3.5c-0.6-0.6-1.1-1.5-1.3-2.6c-0.1-0.7-0.3-0.7-0.4-0.7c-0.3,0-0.3,0.3-0.3,0.6c0,1.3,0.3,2.3,0.8,3.1
					c-0.1,0-0.3,0-0.5,0c-1.5,0-2.4-0.7-2.4-1.6c0-0.1,0-0.4,0.3-0.7c0.3-0.3,0.1-0.4,0-0.4c-0.6,0-1.2,0.7-1.2,1.6
					c0,1,0.9,2.5,3.4,2.5c0.3,0,0.8,0,1.4-0.2c0.8,0.6,1.8,0.9,2.9,0.9s2-0.3,2.9-0.9c0.5,0.1,1,0.2,1.4,0.2c2.5,0,3.4-1.5,3.4-2.5
					c0-0.9-0.6-1.6-1.2-1.6c-0.1,0-0.3,0.1,0,0.4c0.3,0.3,0.3,0.6,0.3,0.7c0,0.9-0.9,1.6-2.4,1.6c-0.1,0-0.3,0-0.5,0
					c0.5-0.8,0.8-1.8,0.8-3.1c0-0.3,0-0.6-0.3-0.6c-0.1,0-0.3,0-0.4,0.7c-0.2,1-0.6,1.9-1.3,2.6c-1.1-0.6-1.8-1.8-1.8-3.5
					c0-2.2,1.9-4.2,5.8-4.2c4.4,0,9,1.9,16.1,9.9l8.1,8.9c1.6,1.9,3.4,3.4,5.2,4.8c1.2,0.9,2.2,1.5,3.4,2.2C99,62,98,62.9,97.2,63.8
					c-0.3-1.8-1.8-3.1-3.7-3.1c-1.5,0-2.7,0.9-3.2,1.9c-0.3,0.6-0.7,1-1.3,1c-0.4,0-0.7-0.3-0.7-0.7c0-0.3-0.1-0.6-0.4-0.6
					c-0.4,0-0.6,0.4-0.6,0.7c0,1,0.7,1.8,1.8,1.8c0.4,0,0.7-0.1,1-0.3c0,0.7,0.9,2.2,2.7,2.2c0.6,0,1-0.1,1-0.6s-0.3-0.4-0.7-0.4
					c-1,0-1.6-0.6-1.6-1.6c0-1,0.9-2.1,2.2-2.1c1.5,0,2.5,1,2.5,2.8c0,0.9-0.4,1.6-0.4,2.8c0,1.8,0.9,3.3,2.4,3.7
					c-7.1,3.1-10.5,9.4-10.5,15.1c0,5.2,1.8,9.4,6.1,13.4l3.4,3.3c4,3.7,7.5,7.9,7.5,14C104.2,123.5,99.6,128,93.6,128L93.6,128z
					 M60.9,155.8c-1.2-2.4-2.5-3.9-3.1-4.6c1.5-0.6,2.5-1.6,3.1-2.8c0.6,1.2,1.6,2.2,3.1,2.8C63.5,151.9,62.1,153.4,60.9,155.8z
					 M62.4,43.8c-0.4,0.2-0.9,0.3-1.5,0.3s-1-0.1-1.5-0.3c0.6-0.4,1.1-1.1,1.5-2C61.3,42.7,61.9,43.4,62.4,43.8z M106.5,110.8
					c-0.9,0-1.6,0.4-1.9,1c-1.2-2.7-2.4-5.2-7.5-10c0.3,0.1,1.3,0.3,2.1,0.3c1.6,0,3.4-0.4,4.4-1.5c0.3,1,1.2,1.6,2.2,1.6
					c1.6,0,2.2-1,2.2-2.2c0-0.4-0.1-0.9-0.6-0.9c-0.9,0-0.1,1.8-1.6,1.8c-0.6,0-1-0.4-1-1.2c0-0.7,0.4-1.6,0.4-2.7
					c0-2.4-1.5-4-3.2-4.5c-1-0.3-1.6-1-1.6-1.9c0-1.2,0.9-1.3,1.5-1.3s1,0.1,1-0.3c0-0.4-0.4-0.7-1.3-0.7c-1,0-2.5,0.7-2.5,2.4
					c0,0.6,0.1,1.2,0.7,1.8c-1.3,0.3-2.5,1.3-2.5,3c0,1,0.3,2.1,1,2.1c0.9,0,0.1-0.7,0.1-1.9c0-1.3,1.2-1.9,2.4-1.9
					c1.6,0,3.1,1.5,3.1,3.4c0,2.2-1.8,3.7-4.6,3.7c-1.6,0-4-0.3-5.9-2.5c-3.1-3.4-4.9-6.4-4.9-11.8c0-6.8,4.9-12.8,12-14.8
					c1.5-0.4,2.7-1.8,2.7-3.6c0-1.5-0.9-2.7-2.4-2.7c-0.6,0-1,0.1-1,0.6s0.4,0.4,0.7,0.4c0.6,0,1.3,0.6,1.3,1.6
					c0,1.5-1.2,2.4-2.5,2.4c-1.6,0-2.7-1.2-2.7-2.8c0-3.1,3.7-5.2,6.5-6.5c-2.5-1.2-3.4-1.6-5.3-3.1c-0.4-0.4-0.6-0.9-0.6-1.5
					c0-0.7,0.4-1.3,1-1.3c0.4,0,0.7,0.3,0.7,0.7s-0.3,0.4-0.3,0.7c0,0.3,0.1,0.4,0.4,0.4c0.3,0,1-0.3,1-1.5c0-0.9-0.6-1.8-1.9-1.8
					s-2.4,1-2.4,2.5c-1-0.9-2.2-1.9-3.2-3.1L87.9,48c-1.3-1.5-0.6-4.3,1.3-4.3c1,0,1.5,0.7,1.5,1.3c0,1.3-1.3,0.7-1.3,1.5
					c0,0.3,0.1,0.6,0.6,0.6c1,0,2.1-0.7,2.1-2.2c0-1.3-1.2-2.5-2.8-2.5c-1.9,0-3.2,1.5-3.2,3.6l-1.5-1.6C78.1,37.2,72.7,34,67.6,34
					c-1.9,0-3.7,0.6-4.7,1.3c-0.9-1-1.3-1.8-1.9-2.7c-0.6,0.9-1,1.6-1.9,2.7c-1-0.7-2.8-1.3-4.7-1.3c-5.2,0-10.5,3.1-17,10.3
					L35.8,46c0-2.1-1.3-3.6-3.2-3.6c-1.6,0-2.8,1.2-2.8,2.5c0,1.5,1,2.2,2.1,2.2c0.4,0,0.6-0.3,0.6-0.6c0-0.7-1.3-0.1-1.3-1.5
					c0-0.6,0.4-1.3,1.5-1.3c1.9,0,2.7,2.8,1.3,4.3l-4.7,5.2c-1,1.2-2.2,2.2-3.2,3.1c0-1.5-1-2.5-2.4-2.5c-1.3,0-1.9,0.9-1.9,1.8
					c0,1.2,0.7,1.5,1,1.5c0.3,0,0.4-0.1,0.4-0.4c0-0.3-0.3-0.3-0.3-0.7s0.3-0.7,0.7-0.7c0.6,0,1,0.6,1,1.3c0,0.6-0.1,1-0.6,1.5
					c-1.8,1.8-2.8,1.9-5.3,3.1c2.8,1.3,6.5,3.4,6.5,6.5c0,1.6-1,2.8-2.7,2.8c-1.3,0-2.5-0.9-2.5-2.4c0-1,0.7-1.6,1.3-1.6
					c0.3,0,0.7,0,0.7-0.4c0-0.4-0.4-0.6-1-0.6c-1.5,0-2.4,1.2-2.4,2.7c0,1.8,1.2,3.1,2.7,3.6c7.1,2.1,12,7.9,12,14.8
					c0,5.4-1.9,8.2-4.9,11.8c-1.9,2.2-4.3,2.5-5.9,2.5c-2.8,0-4.6-1.5-4.6-3.7c0-1.9,1.5-3.4,3.1-3.4c1.2,0,2.4,0.6,2.4,1.9
					c0,1.2-0.7,1.9,0.1,1.9c0.7,0,1-1,1-2.1c0-1.6-1.2-2.7-2.5-3c0.6-0.6,0.7-1.2,0.7-1.8c0-1.6-1.5-2.4-2.5-2.4
					c-0.9,0-1.3,0.3-1.3,0.7s0.4,0.3,1,0.3c0.6,0,1.5,0.1,1.5,1.3c0,0.9-0.6,1.6-1.6,1.9c-1.8,0.4-3.2,2.1-3.2,4.5
					c0,1,0.4,1.9,0.4,2.7s-0.4,1.2-1,1.2c-1.5,0-0.7-1.8-1.6-1.8c-0.4,0-0.6,0.4-0.6,0.9c0,1.2,0.6,2.2,2.2,2.2c1,0,1.9-0.6,2.2-1.6
					c1,1,2.8,1.5,4.4,1.5c0.7,0,1.8-0.1,2.1-0.3c-5.2,4.8-6.3,7.3-7.5,10c-0.3-0.6-1-1-1.9-1c-1.5,0-2.2,0.9-2.2,2.2
					c0,0.3,0,1.2,0.7,1.2c0.6,0,0.3-0.6,0.3-1c0-0.6,0.4-1,1.2-1c1.2,0,1.5,1,1.2,2.7c-0.1,0.7-0.1,1.6-0.1,2.4
					c0,7,5.2,12.1,12,12.1c1,0,1.9-0.1,2.9-0.3l2.1,3.1c-1.5,0.4-2.5,1.8-2.5,3.3c0,1.9,1.5,3.4,3.4,3.4c1.2,0,2.1-0.6,2.1-1.2
					c0-0.4-0.3-0.6-0.6-0.6c-0.4,0-0.4,0.4-1.5,0.4c-1.2,0-2.1-0.9-2.1-2.1c0-1.2,1-2.1,2.5-2.1c2.8,0,4.1,3.3,6.1,6.5l1.9,3.3
					c3.1,5.4,8.1,8.5,12.3,8.5c0.6,0,1.2,0,1.8-0.1c1.8,1.8,3.5,5.1,4.3,6.5c0.7-1.5,2.5-4.8,4.3-6.5c0.6,0.1,1.2,0.1,1.8,0.1
					c4.1,0,9.1-3.1,12.3-8.5l1.9-3.3c1.9-3.3,3.2-6.5,6.1-6.5c1.5,0,2.5,0.9,2.5,2.1c0,1.2-0.9,2.1-2.1,2.1c-1,0-1-0.4-1.5-0.4
					c-0.3,0-0.6,0.1-0.6,0.6c0,0.6,0.9,1.2,2.1,1.2c1.9,0,3.4-1.5,3.4-3.4c0-1.5-1-2.8-2.5-3.3l2.1-3.1c1,0.1,1.9,0.3,2.9,0.3
					c6.8,0,12-5.1,12-12.1c0-0.7,0-1.6-0.1-2.4c-0.3-1.6,0-2.7,1.2-2.7c0.7,0,1.2,0.4,1.2,1c0,0.4-0.3,1,0.3,1
					c0.7,0,0.7-0.9,0.7-1.2C108.8,111.7,108,110.8,106.5,110.8L106.5,110.8z M102.7,136.5c-6.5,6.7-16.1,11.5-25.2,16
					c-6.1,3-12,6-16.5,9.6c-4.6-3.6-10.5-6.5-16.5-9.6c-9.1-4.5-18.8-9.3-25.2-16c-8.2-8.5-12.3-17.2-12.3-27
					c0-8.3,3.2-15.4,10.6-24.8c0.6-0.7,1.2-1.5,1.2-2.1c0-0.6-0.6-1.8-0.9-2.4l-5.2-11.4c-1.2-2.5-2.4-4.9-2.4-7.4
					c0-2.1,1.3-3.6,3.1-5.1l7.4-6.7c0.3-0.3,0.3-0.7,0.1-1l-2.4-4.9c-0.3-0.6-0.3-1,0.1-1.3c7.2-4.9,13.3-6.4,22-8.8
					c8.3-2.2,15.6-4.2,20.2-7.1c4.6,3,12,4.9,20.2,7.1c8.7,2.4,14.6,4.2,22,8.8c0.4,0.3,0.4,0.7,0.1,1.3l-2.4,4.9
					c-0.1,0.3-0.1,0.7,0.1,1l7.4,6.7c1.8,1.5,3.1,3,3.1,5.1c0,2.5-1.2,4.9-2.4,7.4L104,80.2c-0.3,0.6-0.9,1.8-0.9,2.4
					s0.6,1.3,1.2,2.1c8,8.9,10.6,16.4,10.6,24.8C115,119.3,111,128,102.7,136.5L102.7,136.5z M109.7,85.2c-1.3-1.6-2.1-2.4-2.1-3
					c0-0.6,0.4-1.5,0.9-2.5l4.4-9.9c1.3-3,2.5-5.5,2.5-8.6c0-2.2-0.9-4.5-3.1-6.4l-6.3-5.5c-0.6-0.4-0.6-1.2-0.3-1.8l2.4-5.4
					c0.1-0.3,0.1-0.7-0.3-1c-7.2-4.9-15.5-7.9-23.3-10.2c-7.8-2.2-18.4-5.2-23.5-9.2c-5.2,4-15.6,6.8-23.5,9.1
					c-7.8,2.2-16.1,5.2-23.3,10.2c-0.4,0.3-0.4,0.7-0.3,1l2.4,5.4c0.3,0.6,0.3,1.3-0.3,1.8l-6.3,5.5c-2.2,1.9-3.1,4.2-3.1,6.4
					c0,3.1,1.2,5.7,2.5,8.6l4.4,9.9c0.4,1,0.9,1.9,0.9,2.5c0,0.6-0.7,1.3-2.1,3C5.6,93.5,3,100.4,3,109.5c0,12.7,6.2,22.4,13.3,29.7
					c7.2,7.4,17.3,12.4,26.4,16.9c6.1,3,12.4,6,18.3,10.8c5.9-4.8,12.3-7.7,18.3-10.8c9.1-4.5,19.3-9.4,26.4-16.9
					c7.1-7.3,13.3-17,13.3-29.7C118.9,100.4,116.3,93.5,109.7,85.2L109.7,85.2z"/>
			</g>
		</g>
	</g>
</g>
<g id="g88">
	<path id="path94" d="M240.9,301.8c7.3-3.5,11.6-10.6,11.6-19.3c0-6.5-2.1-11.8-6.2-15.8c-4-4.1-9.3-6.2-15.7-6.2h-26.3
		c-0.2,0-0.4,0.2-0.4,0.4v90.3c0,0.2,0.2,0.4,0.4,0.4h29.8c6.9,0,12.8-2.4,17.4-7.2c4.7-4.8,7.1-10.7,7.1-17.5
		C258.8,314.5,251.8,305,240.9,301.8 M207.3,263.9h23.3c10.9,0,18.5,7.7,18.5,18.6c0,5.3-1.8,9.7-5.2,13.2
		c-3.4,3.4-7.8,5.1-13.3,5.1h-23.3L207.3,263.9z M249.2,342c-4,4.1-9,6.2-14.9,6.2h-26.9v-44.1h25.7c6.6,0,11.8,2.1,16.1,6.3
		c4.1,4.1,6.2,9.6,6.2,16.3C255.4,332.9,253.4,337.8,249.2,342"/>
	<path id="path96" d="M61.4,322.5c-3.2,2.8-6.9,4.1-11.2,4.1c-5.4,0-9.8-1.9-13.2-5.7c-3.4-3.8-5.1-8.7-5.1-14.9
		c0-6.2,1.7-11.1,5-14.9c3.4-3.8,7.8-5.7,13.3-5.7c4,0,7.6,1.3,10.8,3.8c3.2,2.5,5.5,5.8,6.8,9.9h31.3c-1.6-12.5-6.9-22.5-15.9-30.2
		c-9-7.7-20-11.5-33.1-11.5c-9.7,0-18.4,2.1-26.1,6.3c-7.7,4.2-13.8,10-18.1,17.4c-4.3,7.4-6.5,15.8-6.5,25c0,9.2,2.2,17.6,6.5,25
		c4.3,7.4,10.4,13.2,18.1,17.4c7.7,4.2,16.5,6.3,26.1,6.3c13.3,0,24.4-4,33.5-11.9c9.1-8,14.3-18.4,15.8-31.2H67.7
		C66.7,316.1,64.6,319.7,61.4,322.5"/>
	<path id="path98" d="M173.9,297.2c-6.2-5.8-14.1-8.7-23.8-8.7c-1,0-2.4,0-4.1,0.1l17.2-28.1l-30.8,0l-14.6,23.8
		c-4.1,6.7-7.2,13-9.1,18.7c-2,5.7-3,11.3-3,17c0,10.3,3.6,18.7,10.8,25.1c7.2,6.5,16.5,9.7,28,9.7c11.6,0,20.9-3.2,28-9.6
		c7.1-6.4,10.6-14.9,10.6-25.4C183.2,310.5,180.1,303,173.9,297.2 M153.1,328.3c-2.2,2.2-5.1,3.3-8.6,3.3c-3.5,0-6.4-1.1-8.6-3.3
		c-2.2-2.2-3.3-5.1-3.3-8.6c0-3.5,1.1-6.4,3.3-8.7c2.2-2.3,5.1-3.4,8.6-3.4c3.5,0,6.4,1.1,8.6,3.4c2.2,2.3,3.3,5.2,3.3,8.7
		C156.5,323.2,155.4,326.1,153.1,328.3"/>
	<path id="path100" d="M494.7,351L494.7,351l-35-49.1l34.9-40.7c0.1-0.1,0.1-0.2,0.1-0.3c0-0.2-0.2-0.4-0.4-0.4h-3.3
		c-0.1,0-0.2,0.1-0.3,0.2l-48,55.9v-55.6c0-0.2-0.2-0.4-0.4-0.4h-2.5c-0.2,0-0.4,0.2-0.4,0.4v90.3c0,0.2,0.2,0.4,0.4,0.4h2.5
		c0.2,0,0.4-0.2,0.4-0.4v-29.6l14.8-17l33.4,46.9c0.1,0.1,0.2,0.2,0.3,0.2h3.1c0.2,0,0.4-0.2,0.4-0.4
		C494.7,351.1,494.7,351,494.7,351"/>
	<path id="path102" d="M418.3,260.5h-2.5c-0.2,0-0.4,0.2-0.4,0.4v82.6l-59.7-82.9c-0.1-0.1-0.2-0.2-0.3-0.2h-1.6
		c-0.2,0-0.4,0.2-0.4,0.4v90.3c0,0.2,0.2,0.4,0.4,0.4h2.5c0.2,0,0.4-0.2,0.4-0.4v-83.3l60.2,83.5c0.1,0.1,0.2,0.2,0.3,0.2h1.1
		c0.2,0,0.4-0.2,0.4-0.4v-90.3C418.8,260.7,418.6,260.5,418.3,260.5"/>
	<path id="path104" d="M338.3,351l-34.2-90.3c-0.1-0.2-0.2-0.3-0.4-0.3h-1.6c-0.2,0-0.3,0.1-0.4,0.3L267.5,351c0,0,0,0.1,0,0.1
		c0,0.2,0.2,0.4,0.4,0.4h2.6c0.2,0,0.3-0.1,0.4-0.3l10.5-27.9h42.9l10.5,27.9c0.1,0.2,0.2,0.3,0.4,0.3h2.6c0.2,0,0.4-0.2,0.4-0.4
		C338.4,351.1,338.4,351.1,338.3,351 M282.7,320.1l20.2-53l20.2,53H282.7z"/>
</g>
</svg>
