<svg cache-id="114756403c8842b38dd23db878c0b41b" id="eDBUjdyPzaY1" xmlns="http://www.w3.org/2000/svg" xmlns:xlink="http://www.w3.org/1999/xlink" viewBox="0 0 1500 1500" shape-rendering="geometricPrecision" text-rendering="geometricPrecision">
<style><![CDATA[
#eDBUjdyPzaY2 {animation: eDBUjdyPzaY2_c_o 8000ms linear infinite alternate forwards}@keyframes eDBUjdyPzaY2_c_o { 0% {opacity: 1} 87.5% {opacity: 1} 93.75% {opacity: 0} 100% {opacity: 0}} #eDBUjdyPzaY3 {animation: eDBUjdyPzaY3_c_o 8000ms linear infinite alternate forwards}@keyframes eDBUjdyPzaY3_c_o { 0% {opacity: 0} 48.75% {opacity: 0;animation-timing-function: cubic-bezier(0.42,0,0.58,1)} 55% {opacity: 1} 100% {opacity: 1}} #eDBUjdyPzaY4 {animation: eDBUjdyPzaY4_c_o 8000ms linear infinite alternate forwards}@keyframes eDBUjdyPzaY4_c_o { 0% {opacity: 0} 50% {opacity: 0;animation-timing-function: cubic-bezier(0.42,0,0.58,1)} 56.25% {opacity: 1} 100% {opacity: 1}} #eDBUjdyPzaY5 {animation: eDBUjdyPzaY5_c_o 8000ms linear infinite alternate forwards}@keyframes eDBUjdyPzaY5_c_o { 0% {opacity: 0} 51.25% {opacity: 0;animation-timing-function: cubic-bezier(0.42,0,0.58,1)} 57.5% {opacity: 1} 100% {opacity: 1}} #eDBUjdyPzaY6 {animation: eDBUjdyPzaY6_c_o 8000ms linear infinite alternate forwards}@keyframes eDBUjdyPzaY6_c_o { 0% {opacity: 0} 52.5% {opacity: 0;animation-timing-function: cubic-bezier(0.42,0,0.58,1)} 58.75% {opacity: 1} 100% {opacity: 1}} #eDBUjdyPzaY7 {animation: eDBUjdyPzaY7_c_o 8000ms linear infinite alternate forwards}@keyframes eDBUjdyPzaY7_c_o { 0% {opacity: 0} 53.75% {opacity: 0;animation-timing-function: cubic-bezier(0.42,0,0.58,1)} 60% {opacity: 1} 100% {opacity: 1}} #eDBUjdyPzaY8 {animation: eDBUjdyPzaY8_c_o 8000ms linear infinite alternate forwards}@keyframes eDBUjdyPzaY8_c_o { 0% {opacity: 0} 55% {opacity: 0;animation-timing-function: cubic-bezier(0.42,0,0.58,1)} 61.25% {opacity: 1} 100% {opacity: 1}} #eDBUjdyPzaY9 {animation: eDBUjdyPzaY9_c_o 8000ms linear infinite alternate forwards}@keyframes eDBUjdyPzaY9_c_o { 0% {opacity: 0} 56.25% {opacity: 0;animation-timing-function: cubic-bezier(0.42,0,0.58,1)} 62.5% {opacity: 1} 100% {opacity: 1}} #eDBUjdyPzaY10 {animation: eDBUjdyPzaY10_c_o 8000ms linear infinite alternate forwards}@keyframes eDBUjdyPzaY10_c_o { 0% {opacity: 0} 57.5% {opacity: 0;animation-timing-function: cubic-bezier(0.42,0,0.58,1)} 63.75% {opacity: 1} 100% {opacity: 1}} #eDBUjdyPzaY11 {animation: eDBUjdyPzaY11_c_o 8000ms linear infinite alternate forwards}@keyframes eDBUjdyPzaY11_c_o { 0% {opacity: 0} 58.75% {opacity: 0;animation-timing-function: cubic-bezier(0.42,0,0.58,1)} 65% {opacity: 1} 100% {opacity: 1}} #eDBUjdyPzaY12 {animation: eDBUjdyPzaY12_c_o 8000ms linear infinite alternate forwards}@keyframes eDBUjdyPzaY12_c_o { 0% {opacity: 0} 60% {opacity: 0;animation-timing-function: cubic-bezier(0.42,0,0.58,1)} 66.25% {opacity: 1} 100% {opacity: 1}} #eDBUjdyPzaY13 {animation: eDBUjdyPzaY13_c_o 8000ms linear infinite alternate forwards}@keyframes eDBUjdyPzaY13_c_o { 0% {opacity: 0} 61.25% {opacity: 0;animation-timing-function: cubic-bezier(0.42,0,0.58,1)} 67.5% {opacity: 1} 100% {opacity: 1}} #eDBUjdyPzaY22_ts {animation: eDBUjdyPzaY22_ts__ts 8000ms linear infinite alternate forwards}@keyframes eDBUjdyPzaY22_ts__ts { 0% {transform: translate(294.899994px,1164.499939px) scale(0,0)} 3.75% {transform: translate(294.899994px,1164.499939px) scale(0,0);animation-timing-function: cubic-bezier(0.42,0,0.58,1)} 11.25% {transform: translate(294.899994px,1164.499939px) scale(1,1)} 100% {transform: translate(294.899994px,1164.499939px) scale(1,1)}} #eDBUjdyPzaY23_ts {animation: eDBUjdyPzaY23_ts__ts 8000ms linear infinite alternate forwards}@keyframes eDBUjdyPzaY23_ts__ts { 0% {transform: translate(719.800018px,1165.480774px) scale(0,0)} 7.5% {transform: translate(719.800018px,1165.480774px) scale(0,0);animation-timing-function: cubic-bezier(0.42,0,0.58,1)} 15% {transform: translate(719.800018px,1165.480774px) scale(1,1)} 100% {transform: translate(719.800018px,1165.480774px) scale(1,1)}} #eDBUjdyPzaY24_ts {animation: eDBUjdyPzaY24_ts__ts 8000ms linear infinite alternate forwards}@keyframes eDBUjdyPzaY24_ts__ts { 0% {transform: translate(1142.799988px,1164.499939px) scale(0,0)} 5% {transform: translate(1142.799988px,1164.499939px) scale(0,0);animation-timing-function: cubic-bezier(0.42,0,0.58,1)} 12.5% {transform: translate(1142.799988px,1164.499939px) scale(1,1)} 100% {transform: translate(1142.799988px,1164.499939px) scale(1,1)}} #eDBUjdyPzaY25 {animation: eDBUjdyPzaY25__m 8000ms linear infinite alternate forwards}@keyframes eDBUjdyPzaY25__m { 0% {d: path('M721.7,848.8L721.7,847');animation-timing-function: cubic-bezier(0.42,0,0.58,1)} 15% {d: path('M721.7,848.8L721.7,1018.4')} 100% {d: path('M721.7,848.8L721.7,1018.4')}} #eDBUjdyPzaY26 {animation: eDBUjdyPzaY26__m 8000ms linear infinite alternate forwards}@keyframes eDBUjdyPzaY26__m { 0% {d: path('M721.7,848.8L722.7,848.8');animation-timing-function: cubic-bezier(0.42,0,0.58,1)} 12.5% {d: path('M721.7,848.8L1142.8,1015.5')} 100% {d: path('M721.7,848.8L1142.8,1015.5')}} #eDBUjdyPzaY27 {animation: eDBUjdyPzaY27__m 8000ms linear infinite alternate forwards}@keyframes eDBUjdyPzaY27__m { 0% {d: path('M721.7,848.8L720.871782,848.8');animation-timing-function: cubic-bezier(0.42,0,0.58,1)} 10% {d: path('M721.7,848.8L294.5,1016.5')} 100% {d: path('M721.7,848.8L294.5,1016.5')}} #eDBUjdyPzaY28_tr {animation: eDBUjdyPzaY28_tr__tr 8000ms linear infinite alternate forwards}@keyframes eDBUjdyPzaY28_tr__tr { 0% {transform: translate(295.25px,1157.200012px) rotate(90.000001deg)} 12.5% {transform: translate(295.25px,1157.200012px) rotate(90.000001deg);animation-timing-function: cubic-bezier(0.42,0,0.58,1)} 22.5% {transform: translate(295.25px,1157.200012px) rotate(0deg)} 31.25% {transform: translate(295.25px,1157.200012px) rotate(0deg)} 41.25% {transform: translate(295.25px,1157.200012px) rotate(90.000001deg)} 100% {transform: translate(295.25px,1157.200012px) rotate(90.000001deg)}} #eDBUjdyPzaY28_ts {animation: eDBUjdyPzaY28_ts__ts 8000ms linear infinite alternate forwards}@keyframes eDBUjdyPzaY28_ts__ts { 0% {transform: scale(0,0)} 13.75% {transform: scale(0,0)} 23.75% {transform: scale(1,1)} 32.5% {transform: scale(1,1)} 42.5% {transform: scale(0,0)} 100% {transform: scale(0,0)}} #eDBUjdyPzaY39_tr {animation: eDBUjdyPzaY39_tr__tr 8000ms linear infinite alternate forwards}@keyframes eDBUjdyPzaY39_tr__tr { 0% {transform: translate(721.050018px,1162.849792px) rotate(90.000001deg)} 35% {transform: translate(721.050018px,1162.849792px) rotate(90.000001deg);animation-timing-function: cubic-bezier(0.42,0,0.58,1)} 45% {transform: translate(721.050018px,1162.849792px) rotate(0deg)} 53.75% {transform: translate(721.050018px,1162.849792px) rotate(0deg)} 63.75% {transform: translate(721.050018px,1162.849792px) rotate(90.000001deg)} 100% {transform: translate(721.050018px,1162.849792px) rotate(90.000001deg)}} #eDBUjdyPzaY39_ts {animation: eDBUjdyPzaY39_ts__ts 8000ms linear infinite alternate forwards}@keyframes eDBUjdyPzaY39_ts__ts { 0% {transform: scale(0,0)} 36.25% {transform: scale(0,0)} 46.25% {transform: scale(1,1)} 55% {transform: scale(1,1)} 65% {transform: scale(0,0)} 100% {transform: scale(0,0)}} #eDBUjdyPzaY40_tr {animation: eDBUjdyPzaY40_tr__tr 8000ms linear infinite alternate forwards}@keyframes eDBUjdyPzaY40_tr__tr { 0% {transform: translate(1139.883911px,1171.696777px) rotate(90.000001deg)} 58.75% {transform: translate(1139.883911px,1171.696777px) rotate(90.000001deg);animation-timing-function: cubic-bezier(0.42,0,0.58,1)} 68.75% {transform: translate(1139.883911px,1171.696777px) rotate(0deg)} 77.5% {transform: translate(1139.883911px,1171.696777px) rotate(0deg)} 87.5% {transform: translate(1139.883911px,1171.696777px) rotate(90.000001deg)} 100% {transform: translate(1139.883911px,1171.696777px) rotate(90.000001deg)}} #eDBUjdyPzaY40_ts {animation: eDBUjdyPzaY40_ts__ts 8000ms linear infinite alternate forwards}@keyframes eDBUjdyPzaY40_ts__ts { 0% {transform: scale(0,0)} 60% {transform: scale(0,0)} 70% {transform: scale(1,1)} 78.75% {transform: scale(1,1)} 88.75% {transform: scale(0,0)} 100% {transform: scale(0,0)}} #eDBUjdyPzaY55 {animation: eDBUjdyPzaY55_c_o 8000ms linear infinite alternate forwards}@keyframes eDBUjdyPzaY55_c_o { 0% {opacity: 1} 43.75% {opacity: 1;animation-timing-function: cubic-bezier(0.42,0,0.58,1)} 50% {opacity: 0} 100% {opacity: 0}} #eDBUjdyPzaY56 {animation: eDBUjdyPzaY56_c_o 8000ms linear infinite alternate forwards}@keyframes eDBUjdyPzaY56_c_o { 0% {opacity: 0} 3.75% {opacity: 0;animation-timing-function: cubic-bezier(0.42,0,0.58,1)} 10% {opacity: 1} 100% {opacity: 1}} #eDBUjdyPzaY57 {animation: eDBUjdyPzaY57_c_o 8000ms linear infinite alternate forwards}@keyframes eDBUjdyPzaY57_c_o { 0% {opacity: 0} 5% {opacity: 0;animation-timing-function: cubic-bezier(0.42,0,0.58,1)} 11.25% {opacity: 1} 100% {opacity: 1}} #eDBUjdyPzaY58 {animation: eDBUjdyPzaY58_c_o 8000ms linear infinite alternate forwards}@keyframes eDBUjdyPzaY58_c_o { 0% {opacity: 0} 6.25% {opacity: 0;animation-timing-function: cubic-bezier(0.42,0,0.58,1)} 12.5% {opacity: 1} 100% {opacity: 1}} #eDBUjdyPzaY59 {animation: eDBUjdyPzaY59_c_o 8000ms linear infinite alternate forwards}@keyframes eDBUjdyPzaY59_c_o { 0% {opacity: 0} 7.5% {opacity: 0;animation-timing-function: cubic-bezier(0.42,0,0.58,1)} 13.75% {opacity: 1} 100% {opacity: 1}} #eDBUjdyPzaY60 {animation: eDBUjdyPzaY60_c_o 8000ms linear infinite alternate forwards}@keyframes eDBUjdyPzaY60_c_o { 0% {opacity: 0} 8.75% {opacity: 0;animation-timing-function: cubic-bezier(0.42,0,0.58,1)} 15% {opacity: 1} 100% {opacity: 1}} #eDBUjdyPzaY61 {animation: eDBUjdyPzaY61_c_o 8000ms linear infinite alternate forwards}@keyframes eDBUjdyPzaY61_c_o { 0% {opacity: 0} 10% {opacity: 0;animation-timing-function: cubic-bezier(0.42,0,0.58,1)} 16.25% {opacity: 1} 100% {opacity: 1}} #eDBUjdyPzaY62 {animation: eDBUjdyPzaY62_c_o 8000ms linear infinite alternate forwards}@keyframes eDBUjdyPzaY62_c_o { 0% {opacity: 0} 11.25% {opacity: 0;animation-timing-function: cubic-bezier(0.42,0,0.58,1)} 17.5% {opacity: 1} 100% {opacity: 1}} #eDBUjdyPzaY63 {animation: eDBUjdyPzaY63_c_o 8000ms linear infinite alternate forwards}@keyframes eDBUjdyPzaY63_c_o { 0% {opacity: 0} 12.5% {opacity: 0;animation-timing-function: cubic-bezier(0.42,0,0.58,1)} 18.75% {opacity: 1} 100% {opacity: 1}} #eDBUjdyPzaY64 {animation: eDBUjdyPzaY64_c_o 8000ms linear infinite alternate forwards}@keyframes eDBUjdyPzaY64_c_o { 0% {opacity: 0} 15% {opacity: 0;animation-timing-function: cubic-bezier(0.42,0,0.58,1)} 21.25% {opacity: 1} 100% {opacity: 1}} #eDBUjdyPzaY65 {animation: eDBUjdyPzaY65_c_o 8000ms linear infinite alternate forwards}@keyframes eDBUjdyPzaY65_c_o { 0% {opacity: 0} 16.25% {opacity: 0;animation-timing-function: cubic-bezier(0.42,0,0.58,1)} 22.5% {opacity: 1} 100% {opacity: 1}} #eDBUjdyPzaY66 {animation: eDBUjdyPzaY66_c_o 8000ms linear infinite alternate forwards}@keyframes eDBUjdyPzaY66_c_o { 0% {opacity: 0} 17.5% {opacity: 0;animation-timing-function: cubic-bezier(0.42,0,0.58,1)} 23.75% {opacity: 1} 100% {opacity: 1}} #eDBUjdyPzaY67 {animation: eDBUjdyPzaY67_c_o 8000ms linear infinite alternate forwards}@keyframes eDBUjdyPzaY67_c_o { 0% {opacity: 0} 18.75% {opacity: 0;animation-timing-function: cubic-bezier(0.42,0,0.58,1)} 25% {opacity: 1} 100% {opacity: 1}} #eDBUjdyPzaY68 {animation: eDBUjdyPzaY68_c_o 8000ms linear infinite alternate forwards}@keyframes eDBUjdyPzaY68_c_o { 0% {opacity: 0} 20% {opacity: 0;animation-timing-function: cubic-bezier(0.42,0,0.58,1)} 26.25% {opacity: 1} 100% {opacity: 1}} #eDBUjdyPzaY69 {animation: eDBUjdyPzaY69_c_o 8000ms linear infinite alternate forwards}@keyframes eDBUjdyPzaY69_c_o { 0% {opacity: 0} 21.25% {opacity: 0;animation-timing-function: cubic-bezier(0.42,0,0.58,1)} 27.5% {opacity: 1} 100% {opacity: 1}} #eDBUjdyPzaY70 {animation: eDBUjdyPzaY70_c_o 8000ms linear infinite alternate forwards}@keyframes eDBUjdyPzaY70_c_o { 0% {opacity: 0} 22.5% {opacity: 0;animation-timing-function: cubic-bezier(0.42,0,0.58,1)} 28.75% {opacity: 1} 100% {opacity: 1}} #eDBUjdyPzaY71 {animation: eDBUjdyPzaY71_c_o 8000ms linear infinite alternate forwards}@keyframes eDBUjdyPzaY71_c_o { 0% {opacity: 0} 23.75% {opacity: 0;animation-timing-function: cubic-bezier(0.42,0,0.58,1)} 30% {opacity: 1} 100% {opacity: 1}}
]]></style>
<g id="eDBUjdyPzaY2" transform="matrix(.475776 0 0 0.475776 123.841197 461.717832)"><path id="eDBUjdyPzaY3" d="M123.9,492.1h65.2c32,0,51.5,19.5,51.5,44.5c0,17.5-8.2,30.2-22.2,38c19.5,5.5,31.2,21.5,31.2,43.7c0,27-20.5,48.7-54.7,48.7h-71v-174.9Zm58.5,67.7c12.5,0,21-7,21-17.7c0-10.5-8.2-17.7-22.7-17.7h-19.5v35.5h21.2Zm-21.2,73h25c15.7,0,25.5-8,25.5-20c0-13-10.5-20.2-26.5-20.2h-24v40.2Z" opacity="0" fill="#919191"/><path id="eDBUjdyPzaY4" d="M271.6,542.1h34.5v64c0,20.7,8.2,28.5,23.5,28.5c14.7,0,25.2-11,25.2-28.5v-64h36.7v125h-34.5c0,0-.5-19.5-.5-19.7-8.2,11.5-24.5,22.2-42.7,22.2-30.5,0-42.2-19-42.2-56.2v-71.3Z" opacity="0" fill="#919191"/><path id="eDBUjdyPzaY5" d="M424.6,630.8c11.2,5,26,9.7,40.2,9.7c8.2,0,13.5-3.5,13.5-9.5c0-17.7-61.7-9-61.7-54.2c0-21.7,20-37.2,45.7-37.2c15.7,0,30,3.2,42,8.5l-8.2,26.2c-10.2-3.7-25-7.5-36.2-7.5-7.2,0-12,2.5-12,8.2c0,15.2,62.5,8.7,62.5,55c0,21.5-18.5,39.5-48.5,39.5-18.2,0-33.7-4.7-48.5-10.7l11.2-28Z" transform="translate(2.293056-11.465276)" opacity="0" fill="#919191"/><path id="eDBUjdyPzaY6" d="M587,669.6c-36,0-64.5-29-64.5-65s28.5-64.5,64.5-65c21.7,0,40,7,54.7,23.2l-21,27c-7.7-9.2-17-16-32.5-16-16.2,0-29.7,13.7-29.7,30.7s12.2,30.7,29.7,30.7c14.2,0,23.7-6.2,32.5-16.2l21,26.7c-13.5,15.6-30.7,23.9-54.7,23.9Z" opacity="0" fill="#919191"/><path id="eDBUjdyPzaY7" d="M742.4,667.1l-.8-18.7c-9.7,15-24.2,21.2-44.5,21.2-23.7,0-39.7-12-39.5-37c.5-36.7,43.5-38,68.5-38c2,0,3.7,0,5.5,0h6c0-20.5-7.2-23.2-26.7-23.2s-36.7,6.7-36.7,6.7l-10-27.5c0,0,18.7-11,49.7-11c52,0,61,27.2,61,62.5v65h-32.5Zm-3.7-52h-3.5c-26,0-42.2,2-42.2,16.2c0,11.5,10.5,14,18.7,14c16.2,0,27-13.5,27-27v-3.2Z" opacity="0" fill="#919191"/><path id="eDBUjdyPzaY8" d="M805.9,542.1h34.5c0,0,.5,19.5.5,19.7c8.2-11.5,24-22.2,43-22.2c29.2,0,44.2,18.7,44.2,56.2v71.2h-36.7v-64c0-20.7-9-28.5-23.5-28.5-15.2,0-25.2,11-25.2,28.5v64h-36.7v-124.9Z" opacity="0" fill="#919191"/><path id="eDBUjdyPzaY9" d="M1080.8,667.1h-34.5l-.5-18.2c-8,11.2-23.7,20.7-42.2,20.7-33,0-55.5-29.2-55.5-65c0-35.5,22.5-65,55.5-65c18.5,0,31.5,8.2,40.5,19.2c0,0,0-76.5,0-79.2h36.7v187.5Zm-64.7-94.3c-16.7,0-30,14-30,31.7c0,18,13.2,31.7,30,31.7c17,0,30.2-13.7,30.2-31.7c0-17.9-13.2-31.7-30.2-31.7Z" opacity="0" fill="#919191"/><path id="eDBUjdyPzaY10" d="M1166.5,539.6c36,0,64.2,29,64.2,65s-28.2,65-64.2,65-64.5-29-64.5-65s28.5-65,64.5-65Zm0,96.7c17,0,30-13.7,30-31.7s-13-31.7-30-31.7-30.2,13.7-30.2,31.7s13.2,31.7,30.2,31.7Z" opacity="0" fill="#919191"/><path id="eDBUjdyPzaY11" d="M1263.5,627.3c12,0,21.5,9.5,21.5,21.5c0,11.5-9.5,20.7-21.5,20.7-11.5,0-20.7-9.2-20.7-20.7-.1-12,9.2-21.5,20.7-21.5Z" opacity="0" fill="#919191"/><path id="eDBUjdyPzaY12" d="M1317.7,627.3c12,0,21.5,9.5,21.5,21.5c0,11.5-9.5,20.7-21.5,20.7-11.5,0-20.7-9.2-20.7-20.7c0-12,9.2-21.5,20.7-21.5Z" opacity="0" fill="#919191"/><path id="eDBUjdyPzaY13" d="M1371.9,627.3c12,0,21.5,9.5,21.5,21.5c0,11.5-9.5,20.7-21.5,20.7-11.5,0-20.7-9.2-20.7-20.7c0-12,9.2-21.5,20.7-21.5Z" opacity="0" fill="#919191"/></g><g><g><g><path d="" fill="#e1e1e1"/></g></g><g><polygon points="744.1,378 731.9,385 719.8,392 719.8,378 719.8,364 731.9,371" fill="#f5f5f5"/></g><g><path d="M826.5,378c0,5.1-4.1,9.3-9.3,9.3s-9.3-4.1-9.3-9.3c0-5.1,4.1-9.3,9.3-9.3s9.3,4.2,9.3,9.3Z" fill="#f5f5f5"/></g></g><g id="eDBUjdyPzaY22_ts" transform="translate(294.899994,1164.499939) scale(0,0)"><circle r="147.4" transform="translate(0.000006,0.000061)" fill="none" stroke="#10af00" stroke-width="6" stroke-miterlimit="10"/></g><g id="eDBUjdyPzaY23_ts" transform="translate(719.800018,1165.480774) scale(0,0)"><circle r="147.4" transform="translate(-0.000018,0.000061)" fill="none" stroke="#10af00" stroke-width="6" stroke-miterlimit="10"/></g><g id="eDBUjdyPzaY24_ts" transform="translate(1142.799988,1164.499939) scale(0,0)"><circle r="147.4" transform="translate(0.000012,0.000061)" fill="none" stroke="#10af00" stroke-width="6" stroke-miterlimit="10"/></g><path id="eDBUjdyPzaY25" d="M721.7,848.8L721.7,847" fill="none" stroke="#10af00" stroke-width="6" stroke-miterlimit="10"/><path id="eDBUjdyPzaY26" d="M721.7,848.8L722.7,848.8" fill="none" stroke="#10af00" stroke-width="6" stroke-miterlimit="10"/><path id="eDBUjdyPzaY27" d="M721.7,848.8L720.871782,848.8" transform="translate(.828218 0)" fill="none" stroke="#10af00" stroke-width="6" stroke-miterlimit="10"/><g id="eDBUjdyPzaY28_tr" transform="translate(295.25,1157.200012) rotate(90.000001)"><g id="eDBUjdyPzaY28_ts" transform="scale(0,0)"><g transform="translate(-295.25,-1157.200012)"><path d="M188.4,1160.4c.2-.3.1-.7.2-1.1.5-6.3,2.8-11.8,6.9-16.6c4.3-5.1,9.6-8.3,16-10c3.1-.8,6.2-1.1,9.4-.8c6.6.4,12.6,2.8,17.7,7c3.2,2.7,5.8,5.8,7.7,9.6c1.6,3.1,2.6,6.4,3,9.9.2,1.4.2,2.8.2,4.2-.1,3.8-1,7.5-2.5,11-1.2,2.8-2.8,5.3-4.8,7.6-3.6,4.1-8,7-13.2,8.8-2.3.8-4.8,1.3-7.2,1.5-1.6.1-3.1.1-4.7.1-3.2-.2-6.3-.9-9.3-2.1-.2-.1-.5-.2-.7-.3-.3-.1-.3-.1-.4.2c0,.2,0,.3,0,.5c0,5.6,0,11.2,0,16.8c0,.3,0,.5,0,.8-6,0-12,0-18,0-.3-15.8-.3-31.4-.3-47.1Zm42.9,1.3c0-.4,0-.8,0-1.2-.4-3.3-1.8-5.9-4.4-8-2-1.7-4.3-2.6-6.9-2.8-2.4-.2-4.7.3-6.9,1.4-4.6,2.4-7.2,7.5-6.4,12.6.8,5.4,5.3,9.7,11.1,10.2c2.4.2,4.8-.2,6.9-1.4c4.3-2.4,6.4-6,6.6-10.8Z" fill="#919191"/><path d="M360.3,1207.4c-.1-.3-.1-.6-.1-.9c0-6,0-12,0-18c0-7.4,0-14.9,0-22.3c0-.9,0-.9.9-.9c3,0,5.9,0,8.9,0c.5,0,.8.2,1,.5c6.1,8.1,12.2,16.2,18.3,24.3.1.1.2.3.4.5c0-.3,0-.5,0-.7c0-7.9,0-15.8,0-23.8c0-.9,0-.9.9-.9c2.9,0,5.8,0,8.8,0c.8,0,.8,0,.8.8c0,13.5,0,27,0,40.4c0,.3,0,.5-.1.8-3.4,0-6.9,0-10.3,0-.1-.2-.2-.4-.3-.5-1.6-2.1-3.1-4.1-4.7-6.2-4.6-6.1-9.1-12.2-13.7-18.3-.1-.1-.2-.3-.4-.4c0,.3,0,.5,0,.7c0,6.8,0,13.6,0,20.4c0,1.4,0,2.9,0,4.3-3.5.2-6.9.2-10.4.2Z" fill="#919191"/><path d="M308,1207.4c-.1-.2,0-.4.1-.6c2-4.8,4-9.6,6-14.3c2.9-7,5.8-13.9,8.7-20.9.8-1.8,1.5-3.7,2.3-5.5c0-.1.1-.2.1-.3.1-.2.3-.3.5-.3.1,0,.2,0,.4,0c3.2,0,6.4,0,9.6,0c0,0,0,0,.1,0c.5-.1.8.2,1,.6.3.9.7,1.8,1.1,2.7c2.8,6.7,5.6,13.4,8.4,20c2.4,5.6,4.7,11.3,7.1,16.9.2.4.3.8.5,1.3.1.2.2.3.1.5-3.5,0-7,0-10.5,0c0-.1-.1-.2-.1-.3-1-2.3-1.9-4.7-2.9-7-.2-.4-.2-.4-.7-.3-2.8.6-5.6.8-8.4.9-1.3,0-2.6-.1-4-.2-1.7-.1-3.4-.4-5.1-.7-.6-.1-.6-.1-.8.4-.6,1.5-1.2,2.9-1.8,4.4-.4,1-.8,1.9-1.2,2.9-3.6-.2-7.1-.2-10.5-.2Zm23.1-30.2c-.2.2-.2.3-.3.4-.9,2.1-1.7,4.2-2.6,6.3-.9,2.2-1.8,4.4-2.7,6.6-.2.5-.2.5.3.6c1.3.2,2.6.3,3.8.3c2.1.1,4.2,0,6.3-.3.7-.1.7-.1.4-.7-1.4-3.5-2.9-7-4.3-10.6-.2-.9-.6-1.7-.9-2.6Z" fill="#919191"/><path d="M274.4,1207.4c0-.3,0-.5,0-.8c0-13.4,0-26.9,0-40.3c0-.2,0-.4,0-.6s.1-.3.3-.3c.1,0,.2,0,.4,0c6.5,0,13.1,0,19.6,0c2.8,0,5.4.6,7.9,1.8c3.4,1.7,5.7,4.5,6.8,8.1c1.2,4.1,1,8.1-.9,11.9-1.7,3.4-4.4,5.8-8,7.1-1.9.7-3.8,1-5.8,1-3.1,0-6.2,0-9.2,0-.1,0-.3,0-.4,0-.4,0-.4.1-.5.4c0,.2,0,.3,0,.5c0,3.4,0,6.9,0,10.3c0,.3,0,.6-.1.8-3.4.1-6.8.1-10.1.1Zm10.2-27.3c0,1.7,0,3.4,0,5.1c0,.2,0,.3,0,.5s.1.3.3.3c.1,0,.2,0,.4,0c2.7,0,5.3,0,8,0c.5,0,1.1,0,1.6-.1c2.7-.6,4.6-2.3,4.9-5c.3-2.3-.7-4.5-2.9-5.7-1.2-.6-2.4-.9-3.8-.9-2.6,0-5.2,0-7.8,0-.1,0-.2,0-.4,0s-.3.1-.3.3s0,.3,0,.5c0,1.6,0,3.3,0,5Z" fill="#919191"/><path d="M205.3,1106.8c0,5.3,0,10.6,0,16c0,.8,0,.8-.8.8-5,0-10.1,0-15.1,0-.8,0-.8,0-.8-.8c0-5.3,0-10.6,0-16c5.5,0,11.1,0,16.7,0Z" fill="#919191"/><path d="M402.1,1147.9c-.1.3-.1.6-.1.9-.9,4.1-4.2,7.4-8.4,8.1-3.7.6-6.9-.4-9.6-3.1-2.1-2.2-3.1-4.9-2.9-8c.3-5,4.2-9,9.1-9.7c5.6-.8,10.6,3,11.7,8.3.1.3,0,.6.1.8.1.9.1,1.8.1,2.7Zm-5.1-1.3c.1-2.9-2.4-5.4-5.3-5.4-2.8,0-5.4,2.2-5.4,5.3c0,3.2,2.6,5.4,5.4,5.4c3,.1,5.5-2.5,5.3-5.3Z" fill="#919191"/><path d="M342.5,1148.6c.1-.2.1-.4.1-.6c0-3.7,0-7.4,0-11.1c0-.8,0-.8.8-.8c1.2,0,2.4,0,3.6,0c.8,0,.8,0,.8.8s0,1.6,0,2.3c0,5.7,0,11.3,0,17c0,1-.1.9-.9.9-1.3,0-2.6,0-3.9,0-.4,0-.6-.1-.8-.4-2.8-3.4-5.6-6.8-8.4-10.1-.5-.6-1-1.2-1.5-1.8-.1-.1-.1-.2-.3-.2-.1.2,0,.4,0,.6c0,3.7,0,7.4,0,11c0,.8,0,.8-.8.8-1.2,0-2.5,0-3.7,0-.1,0-.3,0-.4,0-.2,0-.3-.1-.3-.3s0-.3,0-.5c0-6.5,0-13,0-19.4c0-.8,0-.8.8-.8c1.3,0,2.5,0,3.8,0c.4,0,.7.1,1,.5c1.2,1.5,2.5,3,3.8,4.5c1.9,2.3,3.9,4.6,5.8,6.9.1.3.2.5.5.7Z" fill="#919191"/><path d="M274.4,1146.6c0-3.2,0-6.5,0-9.7c0-.8,0-.8.8-.8c2.7,0,5.4,0,8.1,0c1.1,0,2.2.2,3.3.5c2.3.8,3.5,2.4,3.6,4.7.1,1.6-.4,3-1.5,4.2-.3.3-.3.3.1.6c1.5,1,2.3,2.5,2.5,4.3.1.8,0,1.6-.2,2.3-.5,1.9-1.7,3.1-3.5,3.8-1,.3-1.9.5-3,.5-3.2,0-6.4,0-9.5,0-.6,0-.6,0-.6-.6-.1-3.2-.1-6.5-.1-9.8Zm7.2-1.9c.3,0,.7,0,1,0c.5,0,1.1,0,1.6-.1.7-.2,1.1-.6,1.3-1.3.3-1.7-.3-2.7-2.1-2.8-1.2-.1-2.4,0-3.6,0-.5,0-.5,0-.5.5c0,1.1,0,2.1,0,3.2c0,.5,0,.5.5.5s1.2,0,1.8,0Zm.2,4c0,0,0,0,0,0-.7,0-1.4,0-2.1,0-.5,0-.5,0-.5.5c0,1,0,1.9,0,2.9c0,.5,0,.5.5.5c1.3,0,2.6,0,3.8,0c.4,0,.7-.1,1.1-.2c1-.3,1.5-1.1,1.3-2.2-.1-.8-.6-1.3-1.3-1.5-.3-.1-.6-.1-.9-.1-.6.1-1.3.1-1.9.1Z" fill="#919191"/><path d="M317.8,1157.1c-.7,0-1.4,0-2,0-.4,0-.6-.1-.8-.5-.3-.9-.7-1.8-1.1-2.7-.3-.7-.3-.7-1-.5-1.3.3-2.6.3-3.9.3s-2.6-.1-3.9-.3c-.7-.1-.7-.1-1,.6-.4.9-.7,1.8-1.1,2.7-.1.4-.3.5-.8.5-1.4,0-2.9,0-4.3,0c0,0,0,0-.1,0-.5,0-.5,0-.3-.5.3-.6.5-1.2.8-1.8c1.8-4.3,3.6-8.6,5.4-12.8.8-1.8,1.5-3.6,2.3-5.4.2-.4.4-.5.7-.5c1.5,0,3,0,4.4,0c.4,0,.7.1.8.5c1.3,3.2,2.6,6.3,4,9.5c1.4,3.4,2.8,6.7,4.2,10.1.4,1,.4.9-.6.9-.5-.1-1.1-.1-1.7-.1Zm-8.7-15c-.1.1-.1.1-.1.2-.8,2-1.7,4-2.5,6.1-.1.3-.1.4.3.4c1.4.2,2.9.2,4.4,0c.2,0,.3,0,.5-.1.2,0,.2-.1.2-.3c0-.1-.1-.2-.1-.3-.6-1.5-1.2-3-1.8-4.5-.5-.4-.6-.9-.9-1.5Z" fill="#919191"/><path d="M366.6,1157.1c-2.9,0-5.5-1-7.5-3.1-2.1-2.2-3.2-4.8-3-7.9.3-5.1,4-8.9,8.5-9.8c3.6-.7,6.8.3,9.5,2.8.3.2.5.5.7.8s.2.4-.1.6c-.7.5-1.3.9-2,1.4-.5.3-1,.7-1.5,1-.4.3-.4.3-.8-.1-.8-.8-1.8-1.4-3-1.5-3.1-.5-5.8,1.6-6.2,4.5-.4,2.7,1.3,5.3,3.7,5.9c2,.6,3.8.2,5.3-1.3.1-.1.2-.1.2-.2.2-.2.3-.2.5,0c.4.3.8.6,1.3.8.7.5,1.5,1,2.2,1.5.4.3.4.3.1.8-1.7,2-3.8,3.2-6.3,3.6-.5.2-1,.2-1.6.2Z" fill="#919191"/></g></g></g><g id="eDBUjdyPzaY39_tr" transform="translate(721.050018,1162.849792) rotate(90.000001)"><g id="eDBUjdyPzaY39_ts" transform="scale(0,0)"><path d="M719.9,1194.8c-4.3.7-7.8,1.8-7.8,6.4c0,3.9,3.1,5.1,5.3,5.1c5.1,0,10.2-3.2,10.2-8.4v-5.5c-1,1-3,1.7-7.7,2.4Zm0,0c-4.3.7-7.8,1.8-7.8,6.4c0,3.9,3.1,5.1,5.3,5.1c5.1,0,10.2-3.2,10.2-8.4v-5.5c-1,1-3,1.7-7.7,2.4Zm52.5-112.5l-102.5-.1c-16.2-.1-29.4,13.2-29.4,29.3l-.1,102.5c0,16.2,13.2,29.3,29.3,29.4l102.6.1c16.1,0,29.4-13.2,29.4-29.3v-102.5c0-16.2-13.3-29.4-29.3-29.4ZM667.6,1213.2h-12.3l.1-57.4h12.3l-.1,57.4Zm99.6-57.4h11.7l-8.3,9.2h-8.2l4.8-9.2Zm-69.9,22.8h-7.1l-.1,23.1c0,2.5.1,3.5,4.8,3.5.7,0,1.6-.1,2.4-.2v8.5c-1.7.1-3.6.2-5.4.2h-1.5c-9.9,0-11.6-3.7-11.6-9.2v-25.9h-5.8v-8h5.9v-14.8h11.4v14.8h7.1v8Zm31.7,34.6c-.7-2-.8-2.7-1.1-5-2.5,2.6-6.2,6.1-14,6.1-6.4,0-13.2-3.6-13.2-12.4c0-8.3,5.4-12.6,12.7-13.6l10.2-1.5c1.8-.2,4-1,4-3.4c0-4.7-4.6-4.9-7.5-4.9-5.7,0-6.7,3.4-7.1,5.9h-11c1.4-13,10.6-14.9,19.5-14.9c6.1,0,17.2,1.9,17.2,12.4v0v23c0,.1.1,3.5.1,8.2l-9.8.1Zm57.7,0h-11v-6h-.1c-2.6,4.6-7.2,7.2-13.2,7.1-8.6,0-14.8-4.8-14.8-15.7l.1-28h11.4v26.4c-.1,6.6,3.9,7.9,7.4,7.9c3.7,0,8.8-2.2,8.8-9.7v-24.6h11.4v42.6Zm-74.5-12c0,3.9,3.1,5.1,5.3,5.1c5.1,0,10.2-3.2,10.2-8.4v-5.5c-1.1.9-3.1,1.6-7.8,2.3-4.2.8-7.7,1.9-7.7,6.5Zm7.7-6.4c-4.3.7-7.8,1.8-7.8,6.4c0,3.9,3.1,5.1,5.3,5.1c5.1,0,10.2-3.2,10.2-8.4v-5.5c-1,1-3,1.7-7.7,2.4Zm0,0c-4.3.7-7.8,1.8-7.8,6.4c0,3.9,3.1,5.1,5.3,5.1c5.1,0,10.2-3.2,10.2-8.4v-5.5c-1,1-3,1.7-7.7,2.4Z" transform="translate(-721.050018,-1162.849792)" clip-rule="evenodd" fill="#919191" fill-rule="evenodd"/></g></g><g id="eDBUjdyPzaY40_tr" transform="translate(1139.883911,1171.696777) rotate(90.000001)"><g id="eDBUjdyPzaY40_ts" transform="scale(0,0)"><g transform="translate(-1139.883911,-1171.696777)"><path d="M1022,1138.2c.1-.3.2-.6.2-.9.6-6,5.3-11.1,11.2-12.2.8-.1,1.6-.2,2.3-.2c1.7,0,3.5,0,5.2,0c.5,0,1,.1,1.4.4.8.5,1.2,1.2,1.3,2.2c0,.2,0,.5,0,.7c0,7.2,0,14.5,0,21.7c0,.2,0,.5,0,.7c0,0,.1,0,.1,0c.1-.1.1-.2.2-.4.4-1.5,2-2.8,4-2.5c3.1.5,6,1.5,8.7,3.1c6.2,3.8,10,9.3,11.3,16.4.5,2.5.5,5,.2,7.6-.3,2.5-.8,4.9-1.8,7.2-2,4.6-5.4,8-9.8,10.3-2.8,1.5-5.8,2.4-9,2.9-.4.1-.8.1-1.2.1-1.3,0-2.4-1.1-2.5-2.4c0-.2,0-.5,0-.7c0-8.6,0-17.2,0-25.8c0-.3,0-.6,0-.9c0,0-.1,0-.1,0c0,.2-.1.3-.1.5-.7,3.7-3.5,6.3-7.2,6.8-.3,0-.5,0-.8,0-3.6,0-7.1,0-10.7,0-1.3,0-2.2-.7-2.7-1.9-.1-.2-.2-.3-.2-.4c0-10.7,0-21.5,0-32.3Z" fill="#919191"/><path d="M1172.3,1122.7c.2.2.2.5.2.8c0,1.3,0,2.6,0,3.9c0,.2,0,.4,0,.7.2-.2.3-.3.5-.4.8-.8,1.7-1.2,2.8-1.3c3.4-.4,5.7,1.9,6.1,4.9.2,1.5.1,2.9-.5,4.2-1.4,3.1-4.8,3.7-7.1,2.7-.6-.2-1.1-.6-1.5-1.1-.1-.1-.2-.2-.4-.5c0,.4,0,.8,0,1.1c0,.2,0,.3,0,.5s-.1.4-.4.4c-.6,0-1.2,0-1.7,0-.2,0-.3-.1-.4-.4c0-.1,0-.2,0-.3c0-4.8,0-9.6,0-14.4c0-.3,0-.6.2-.8.7,0,1.5,0,2.2,0Zm.2,9.8c0,.9.2,1.8.7,2.5c1.4,2,4.6,1.9,5.7-.3.8-1.5.7-3.1-.2-4.6-1.3-2-4.3-2-5.6.1-.5.7-.6,1.4-.6,2.3Z" fill="#919191"/><path d="M1253.1,1156.8c.4.7.8,1.3,1.1,1.9c1.2,2.3,2,4.8,2.4,7.3.2,1.2.3,2.5.3,3.7-.2,6.9-2.9,12.4-9.1,16-.1.1-.3.2-.4.3c0,0,0,.1-.1.1.1.2.3.3.5.3c1.4.7,2.8,1.5,4.1,2.5c2.7,2.1,4.5,4.9,5.2,8.3.4,2,.4,4,.2,6-.2,2.2-.8,4.2-1.8,6.1-1.7,3.2-4.1,5.7-7.2,7.5-2.7,1.6-5.6,2.6-8.7,3.3-3,.6-6.1.7-9.2.5-3.3-.2-6.5-.8-9.6-2-3.6-1.5-6.6-3.8-8.6-7.2-1.2-2.1-2-4.3-2.4-6.7-.1-.9-.2-1.7-.3-2.6-.1-1.1.6-2.2,2-2.2c2.8,0,5.6,0,8.4,0c.9,0,1.7.6,1.9,1.6.1.4.2.8.3,1.2.9,2.9,2.8,4.8,5.7,5.7c1.4.4,2.8.7,4.2.7c2,.1,4-.1,6-.7c1.6-.5,3-1.3,4.2-2.5c1.7-1.7,2.3-3.8,2.1-6.2c0-.5-.1-.9-.2-1.4-.5-1.8-1.6-3.2-3.3-4.1-1.3-.7-2.6-1.1-4-1.3-1.2-.2-2.5-.2-3.7-.2-3.7,0-7.3-.6-10.7-1.9-7-2.8-11.3-8-12.9-15.4-.9-4.5-.8-9,.6-13.5c1.9-5.7,5.6-9.9,11-12.5c2.6-1.3,5.3-2,8.2-2.4c2.1-.3,4.1-.3,6.2-.2c2.9.2,5.7.9,8.3,2c.8.3.6.5,1.2-.3c1-1.3,2-2.6,3-3.9.4-.6,1-.9,1.7-.8.4,0,.8.3,1.1.5c1.7,1.3,3.5,2.7,5.2,4c.4.3.7.6,1.1.8.8.6.9,2.1.2,2.8-1.2,1.4-2.4,2.8-3.6,4.2-.3.4-.4.5-.6.7Zm-20.4,24.4c6.2,0,11.3-5,11.4-11.2.1-6.6-5.3-11.6-11.3-11.6-5.9,0-11.4,4.7-11.4,11.3-.1,6.4,5,11.5,11.3,11.5Z" fill="#919191"/><path d="M1147.7,1153.1c.2-.2.3-.3.3-.4c1.6-2.7,4-4.3,7-5.1c3.1-.7,6.1-.6,9.1.5c2.7,1.1,4.7,3.1,6.1,5.6.3.5.5,1,.8,1.5.2-.2.3-.4.4-.5.9-1.3,1.8-2.6,3-3.7c2.3-2.3,5.2-3.6,8.4-3.8c2.5-.2,4.9-.1,7.3.6c3.9,1.1,6.7,3.4,8.6,6.9c1.1,2.1,1.8,4.3,2.2,6.6s.6,4.6.6,6.9c0,7.2,0,14.5,0,21.7c0,.2,0,.3,0,.5-.1.8-.6,1.4-1.4,1.6-.2,0-.5.1-.7.1-2.6,0-5.3,0-7.9,0-.2,0-.3,0-.5,0-1-.1-1.6-.7-1.7-1.8c0-.2,0-.5,0-.7c0-6.9,0-13.8,0-20.8c0-1.2-.1-2.5-.3-3.7-.2-.9-.5-1.9-.9-2.7-1.1-2-2.8-3.1-5.1-3.3-.8-.1-1.7-.1-2.5.2-1.8.5-3,1.5-3.9,3-.8,1.3-1.2,2.8-1.4,4.3-.1.9-.1,1.8-.1,2.6c0,6.8,0,13.6,0,20.4c0,.2,0,.5,0,.7-.1.7-.6,1.3-1.3,1.5-.3.1-.5.1-.8.1-2.6,0-5.1,0-7.7,0-.3,0-.5,0-.8-.1-.7-.2-1.2-.8-1.3-1.5c0-.2,0-.5,0-.7c0-7,0-14,0-21.1c0-1.8-.2-3.5-.8-5.2s-1.7-3.1-3.4-3.9c-2.8-1.3-6.6-1-8.8,2.4-1,1.5-1.5,3.1-1.7,4.8-.1.8-.1,1.6-.1,2.4c0,6.9,0,13.8,0,20.7c0,1.5-.7,2.3-2.2,2.2-2.5,0-5.1,0-7.7,0-.1,0-.2,0-.3,0-1.2,0-1.9-.7-1.9-2c0-13.3,0-26.6,0-39.9c0-.1,0-.1,0-.2c0-1.2.9-1.8,1.8-1.8c2.4,0,4.8,0,7.2,0c1,0,1.6.5,1.8,1.6.2.9.3,1.8.5,2.7c0,.4,0,.5.1.8Z" fill="#919191"/><path d="M1092.7,1186.4c-.1.4-.1.7-.2,1.1-.1.9-.3,1.8-.4,2.7-.2,1.2-.8,1.8-2,1.8-2.5,0-5.1,0-7.6,0-1.4,0-2-.7-2-2.1c0-13,0-26.1,0-39.1c0-7.2,0-14.3,0-21.5c0-1.5.8-2.2,2.2-2.2c2.8,0,5.7,0,8.5,0c.3,0,.6,0,.8.1.7.2,1.1.8,1.2,1.5c0,.2,0,.5,0,.7c0,7.6,0,15.2,0,22.8c0,.2,0,.5,0,.8.3-.1.4-.3.6-.5c1.7-1.9,3.6-3.4,6-4.4c2-.8,4.1-1.3,6.3-1.3c2.8-.1,5.6.1,8.3,1c6.8,2.1,11.2,6.6,13.4,13.3c1.1,3.2,1.4,6.5,1.3,9.8-.1,3.2-.7,6.3-1.9,9.2-2.9,6.7-7.9,10.8-15,12.2-3.2.7-6.5.6-9.8,0-3.6-.7-6.6-2.5-9-5.2-.2-.3-.4-.5-.7-.8.1.1.1.1,0,.1Zm1.8-16.6c-.1,6.2,5,11.5,11.4,11.5c6.3,0,11.4-5.2,11.4-11.6c0-6.3-5.2-11.4-11.5-11.4-6.4,0-11.4,5.4-11.3,11.5Z" fill="#919191"/><path d="M1193.6,1128.2c0-.4,0-.7,0-1.1c0-.3.1-.4.4-.4.6,0,1.1,0,1.7,0c.3,0,.4.1.4.4c0,.1,0,.3,0,.4c0,3.5,0,6.9,0,10.4c0,.1,0,.2,0,.3c0,.4-.1.5-.5.5-.5,0-1,0-1.5,0-.3,0-.4-.1-.4-.5c0-.5,0-.9,0-1.5-.2.1-.3.2-.3.3-.9,1.2-2.1,1.6-3.4,1.7-3.2.2-5.3-1.9-5.8-4.8-.3-1.5-.1-2.9.4-4.3c1.3-3.1,4.4-3.8,6.9-3c.7.2,1.3.6,1.7,1.2.1.1.2.2.3.4c0,0,.1,0,.1,0Zm-.1,4.4c0-.8-.1-1.5-.5-2.2-.6-1.2-1.6-1.7-3-1.7-1.3,0-2.3.6-2.9,1.8-.7,1.4-.7,2.9.1,4.4.6,1.2,1.7,1.7,3,1.6c1.3,0,2.3-.6,2.9-1.8.3-.8.4-1.4.4-2.1Z" fill="#919191"/><path d="M1232.4,1138.7c-3.6,0-6.1-2.6-6.1-6.2c0-2.2.9-4.1,2.8-5.3c2.9-1.8,8.2-1.1,9.4,3.8.7,2.8-.6,6-3.6,7.2-.3.1-.7.2-1,.3-.5.1-1,.1-1.5.2Zm.1-10.1c-1.7,0-2.9.9-3.4,2.5-.2.8-.2,1.6-.1,2.4.3,1.6,1.4,2.6,3.1,2.8c1.3.1,2.8-.4,3.5-2c.5-1,.6-2.1.2-3.2-.4-1.5-1.8-2.5-3.3-2.5Z" fill="#919191"/><path d="M1202.1,1128.1c.2-.1.2-.2.3-.2c1.4-1.8,4.1-1.7,5.5-1.1c1.2.6,1.8,1.5,2.1,2.8.1.4.1.8.1,1.3c0,2.4,0,4.8,0,7.2c0,.1,0,.2,0,.3c0,.3-.1.4-.4.4-.6,0-1.2,0-1.8,0-.3,0-.4-.1-.4-.4c0-.2,0-.3,0-.5c0-2.1,0-4.1,0-6.2c0-.3,0-.5,0-.8-.2-1.5-1.5-2.5-3-2.2-1.4.3-2.2,1.3-2.3,2.8c0,1.6,0,3.2,0,4.8c0,.6,0,1.3,0,1.9c0,.5-.1.6-.6.6s-1,0-1.6,0c-.4,0-.5-.1-.5-.5c0-.1,0-.2,0-.3c0-3.5,0-6.9,0-10.4c0-.8,0-.8.8-.8.4,0,.8,0,1.2,0s.4.1.5.5c0,.1,0,.4.1.8Z" fill="#919191"/><path d="M1221.7,1130.9c-.1-.2-.1-.3-.2-.4-.9-2.1-3.8-2.5-5.3-.7-.5.6-.7,1.4-.8,2.2-.1.9,0,1.7.3,2.5.5,1.2,1.4,2,2.7,2c1.4.1,2.5-.5,3-1.8.1-.3.3-.4.6-.4.5,0,1,0,1.6,0c.5,0,.6.1.5.6-.2.5-.3,1-.6,1.4-1.1,1.6-2.7,2.4-4.7,2.4-2.8.1-5.2-1.7-5.9-4.6-.5-2.3,0-4.4,1.7-6.1c2.1-2.1,5.6-2.2,7.9-.3.8.7,1.4,1.6,1.6,2.6.1.5,0,.6-.5.6s-1.2,0-1.9,0Z" fill="#919191"/></g></g></g><g><path d="M1130.6,622.4v225.9h190.5c62.4,0,112.9-50.6,112.9-112.9v0c0-62.4-50.6-112.9-112.9-112.9h-190.5Z" fill="#10af00" stroke="#222" stroke-width="0.5" stroke-miterlimit="10"/></g><g><g><path d="M1326.5,847.3c0,0,2.6-.2,7.7-.5c2.6,0,5.7-.6,9.4-1.2c3.8-.4,8-1.7,12.8-2.9c9.5-2.9,21-7.7,32.7-16.4c1.5-1.1,2.9-2.2,4.4-3.3c1.4-1.2,2.8-2.6,4.3-3.9c3-2.5,5.7-5.6,8.5-8.7c2.9-3,5.2-6.7,7.9-10.2c1.2-1.9,2.3-3.8,3.5-5.8l1.8-3l1.5-3.2c4.4-8.3,7.3-18,9.3-28.2.4-2.6.8-5.2,1.2-7.8.1-2.7.3-5.4.4-8.1.2-5.5.2-11.1,0-16.9-.3-22.9-8.9-47.8-26.8-67.8-17.6-20-45-34.3-75.4-35.1-30.4-.3-62.7,0-96.5-.1-270.7.1-644.7.2-1057.8.3-25.6,0-50.8,9.7-69.6,26.5-18.8,16.7-31.5,40.3-34.4,65-.6,3.1-.5,6.2-.8,9.3-.2,3.1-.3,6.2-.2,9.4-.1,6.3.2,12.5.7,18.6c1.3,12.3,5.1,24.2,10.6,35.1c11.1,21.8,29.7,39.5,51.9,49.1c11.1,4.8,22.9,7.5,34.8,8.3c5.9.4,12,.4,18,.4s12,0,18,0c23.9,0,47.6,0,71,0c46.8,0,92.7,0,137.5,0c179,.1,340.2.2,475.5.2c135.3.2,244.9.3,320.6.4c37.8.1,67.2.2,87.2.2c9.9.1,17.5.1,22.7.1c5,.1,7.6.2,7.6.2s-2.6.1-7.7.1-12.7.1-22.7.1c-20,0-49.3.1-87.2.2-75.7.1-185.3.2-320.6.4-135.4.1-296.6.2-475.5.2-44.7,0-90.6,0-137.5,0-23.4,0-47.1,0-71,0-6,0-12,0-18,0s-12,.1-18.1-.4c-12.2-.8-24.2-3.7-35.5-8.5-22.6-9.7-41.7-27.8-53-50.1-5.6-11.2-9.5-23.3-10.8-35.9-.6-6.3-.8-12.6-.8-18.9c0-3.1,0-6.3.2-9.4.2-3.2.1-6.4.8-9.5c3-25.3,15.9-49.3,35.2-66.4c19.2-17.2,45-27,71.1-27.1c413,.1,787,.3,1057.8.3c33.8.1,66-.1,96.6.2c30.8.9,58.5,15.5,76.3,35.7c18,20.3,26.7,45.6,26.9,68.7.2,5.8.2,11.4-.1,16.9-.2,2.8-.3,5.5-.5,8.2-.4,2.7-.8,5.3-1.2,7.9-2.1,10.3-5,20-9.5,28.4-.5,1.1-1,2.1-1.5,3.2l-1.8,3c-1.2,2-2.4,3.9-3.6,5.8-2.8,3.5-5.1,7.2-8,10.3-2.8,3.1-5.5,6.2-8.6,8.7-1.5,1.3-2.9,2.6-4.3,3.9-1.5,1.1-3,2.2-4.5,3.3-11.8,8.7-23.4,13.4-33,16.3-4.8,1.2-9.1,2.4-12.9,2.8-3.7.6-6.9,1.1-9.5,1.1-4.9.4-7.5.5-7.5.5Z" fill="#10af00" stroke="#10af00" stroke-width="4" stroke-miterlimit="10"/></g></g><g id="eDBUjdyPzaY55" transform="translate(0 0.000005)"><path id="eDBUjdyPzaY56" d="M182.3,773.8v-73.6h21.1l20.8,44.7l20.9-44.7h21.1v73.6h-16.6l.2-51.9-18.5,42h-14l-18.5-42l.2,51.9h-16.7Z" opacity="0" fill="#919191"/><path id="eDBUjdyPzaY57" d="M291.7,751.8c1.3,5.6,7.4,10,17.1,10c7.3,0,11.5-.8,16.4-2l3.6,12.1c-6.4,1.8-11.9,2.9-22,2.9-18.1,0-30.5-12.4-30.5-27.4c0-14.2,10.9-27.4,27.4-27.4c17.6,0,29,13.3,26.2,31.7h-38.2Zm24.9-9.9c-1-5.7-5.4-10.2-12.7-10.2-6.7,0-11.9,4.1-12.7,10.2h25.4Z" opacity="0" fill="#919191"/><path id="eDBUjdyPzaY58" d="M340.1,773.8v-78.9h16.4v78.9h-16.4Z" opacity="0" fill="#919191"/><path id="eDBUjdyPzaY59" d="M370.2,694.9h16.4v33.9c3.5-4.3,9.9-8.6,18.4-8.6c13.1,0,19.8,8,19.8,23.7v30h-16.4v-26.9c0-8.7-4-12-10.5-12-6.8,0-11.3,4.6-11.3,12v26.9h-16.4v-79Z" opacity="0" fill="#919191"/><path id="eDBUjdyPzaY60" d="M462.2,720.2c16.1,0,28.7,12.2,28.7,27.4c0,15.1-12.6,27.4-28.7,27.4s-28.8-12.2-28.8-27.4s12.7-27.4,28.8-27.4Zm0,40.7c7.6,0,13.4-5.8,13.4-13.4s-5.8-13.4-13.4-13.4-13.5,5.8-13.5,13.4s5.9,13.4,13.5,13.4Z" opacity="0" fill="#919191"/><path id="eDBUjdyPzaY61" d="M537.9,735.5c-3.7-.6-7.1-1.2-10.5-1.2-7.7,0-10.6,15.7-10.6,15.7v23.8h-16.4c0-5.3,0-47.3,0-52.6h15.4l.2,8.4h.1c1.6-4.8,5.9-9.5,12.8-9.5c3,0,5.6.2,9.6,1.1l-.6,14.3Z" opacity="0" fill="#919191"/><path id="eDBUjdyPzaY62" d="M558.9,751.8c1.3,5.6,7.4,10,17.1,10c7.3,0,11.5-.8,16.4-2l3.6,12.1c-6.4,1.8-11.9,2.9-22,2.9-18.1,0-30.5-12.4-30.5-27.4c0-14.2,10.9-27.4,27.4-27.4c17.6,0,29,13.3,26.2,31.7h-38.2Zm24.9-9.9c0,0-5.4-10.2-12.7-10.2-6.7,0-11.9,4.1-12.7,10.2h25.4Z" opacity="0" fill="#919191"/><path id="eDBUjdyPzaY63" d="M608.5,758.6c5,2.1,11.6,4.1,18,4.1c3.7,0,6-4,6-4s-27.6-3.8-27.6-22.8c0-9.2,8.9-15.7,20.4-15.7c7,0,13.4,1.4,18.8,3.6l-3.7,11c-4.6-1.6-11.2-3.2-16.2-3.2-3.2,0-5.4,1.1-5.4,3.5c0,6.4,27.9,3.7,27.9,23.1c0,9-8.3,16.6-21.7,16.6-8.2,0-15.1-2-21.7-4.5l5.2-11.7Z" opacity="0" fill="#919191"/><path id="eDBUjdyPzaY64" d="M684.7,721.2l7.4.1.7-15.7h15.2v15.7l14.7-.1v14.1h-14.7v20c0,3.6,2.2,4.9,5.2,4.9c2.5,0,5.6-.4,8.3-1.3l2.8,13.7c-4.6,1.6-8.7,2.2-14.1,2.2-11.8,0-18.7-6.3-18.7-17.5v-22.1h-6.9v-14Z" opacity="0" fill="#919191"/><path id="eDBUjdyPzaY65" d="M769.5,773.8l-.3-7.9c-4.4,6.3-10.8,8.9-19.9,8.9-10.6,0-17.8-5-17.6-15.6.2-15.5,19.4-16,30.6-16c.9,0,1.7,0,2.5,0h2.7c0-8.6-3.2-9.8-12-9.8-8.7,0-16.4,2.8-16.4,2.8l-4.5-11.6c0,0,8.4-4.6,22.2-4.6c23.2,0,27.2,11.5,27.2,26.3v27.4h-14.5Zm-1.6-21.9c-.339411-.339411-1.6,0-1.6,0-11.6,0-18.9.8-18.9,6.8c0,4.8,4.7,5.9,8.4,5.9c7.3,0,12.1-5.7,12.1-11.4c0,0,.275772-1.024228,0-1.3Z" opacity="0" fill="#919191"/><path id="eDBUjdyPzaY66" d="M809.4,747.4l-17.6-26.2h17.8l9.7,16l9.7-16h17.8l-17.5,26.2l17.6,26.4h-17.8l-9.8-16-9.8,16h-17.8l17.7-26.4Z" opacity="0" fill="#919191"/><path id="eDBUjdyPzaY67" d="M889.7,773.8l-.3-7.9c-4.4,6.3-10.8,8.9-19.9,8.9-10.6,0-17.8-5-17.6-15.6.2-15.5,19.4-16,30.6-16c.9,0,1.7,0,2.5,0h2.7c0-8.6-3.2-9.8-11.9-9.8s-16.4,2.8-16.4,2.8l-4.5-11.6c0,0,8.4-4.6,22.2-4.6c23.2,0,27.3,11.5,27.3,26.3v27.4h-14.7ZM888,751.9h-1.6c-11.6,0-18.9.8-18.9,6.8c0,4.8,4.7,5.9,8.4,5.9c7.3,0,12.1-5.7,12.1-11.4v-1.3Z" opacity="0" fill="#919191"/><path id="eDBUjdyPzaY68" d="M919.2,758.6c5,2.1,11.6,4.1,18,4.1c3.7,0,6-1.5,6-4c0-7.5-27.6-3.8-27.6-22.8c0-9.2,8.9-15.7,20.4-15.7c7,0,13.4,1.4,18.8,3.6l-3.7,11c-4.6-1.6-11.2-3.2-16.2-3.2-3.2,0-5.4,1.1-5.4,3.5c0,6.4,27.9,3.7,27.9,23.1c0,9-8.3,16.6-21.7,16.6-8.2,0-15.1-2-21.7-4.5l5.2-11.7Z" transform="translate(1.673014 0)" opacity="0" fill="#919191"/><path id="eDBUjdyPzaY69" d="M973.9,757.1c5.4,0,9.6,4,9.6,9c0,4.8-4.2,8.7-9.6,8.7-5.1,0-9.3-3.9-9.3-8.7.1-5,4.2-9,9.3-9Z" opacity="0" fill="#919191"/><path id="eDBUjdyPzaY70" d="M1000.4,757.1c5.4,0,9.6,4,9.6,9c0,4.8-4.2,8.7-9.6,8.7-5.1,0-9.3-3.9-9.3-8.7c0-5,4.2-9,9.3-9Z" opacity="0" fill="#919191"/><path id="eDBUjdyPzaY71" d="M1026.9,757.1c5.4,0,9.6,4,9.6,9c0,4.8-4.2,8.7-9.6,8.7-5.1,0-9.3-3.9-9.3-8.7c0-5,4.1-9,9.3-9Z" opacity="0" fill="#919191"/></g><path d="M1338.8,784.9c-.5,2.4-1.4,4.5-3.3,6.2-4.4,3.8-10,3.5-14.3-.7-8.9-8.9-17.7-17.7-26.6-26.6-.3-.3-.6-.8-.7-1-3.3,1.7-6.2,3.5-9.3,4.8-13.6,5.6-27.1,5.6-40.6-.5-10-4.6-17.7-11.8-23-21.4-4.8-8.6-6.8-17.9-6-27.8.9-12.2,5.8-22.7,14.3-31.4c8.2-8.3,18.1-13.2,29.7-14.5c10.4-1.2,20.2.6,29.5,5.6c7.7,4.1,13.9,9.9,18.6,17.2c4.9,7.6,7.5,15.9,7.8,24.9.3,9.7-1.9,18.9-6.9,27.3-.6,1-.6,1.5.3,2.3c8.6,8.5,17.2,17.2,25.8,25.7c2.2,2.2,4.1,4.4,4.6,7.6.1.7.1,1.5.1,2.3Zm-40-63.3c0-18.6-15.3-33.9-33.9-33.8-18.6,0-33.7,15.1-33.8,33.7s15.1,33.8,33.8,33.9c18.6.1,33.9-15.1,33.9-33.8Z" fill="#fff"/><g><g><g><g><path d="M718.9,680c-5-3.7-6.3-7.5,2.4-10.3c19.2-6.2,31.7-18.1,32.9-23.6c1.1-5.5-6.2-8.9-10.8-4.7-3.8,3.4-11.7,7.2-17.9,9.8-5,2.1-10.4,3.5-15.9,3.8-4.7.3-8.9.5-12.7.5c0,0-21.8.3-32.3-4.7l-33.2,56.9l25.9,18.6c0,0,13.2,12.5,30.5,6.7s38.2-23.9,38.2-23.9c2.1-5.7,34.5,5.4,45.2,9.9c10.5,4.4,17.1,1.3,15.3-5-1.2-4.3-33.5-18.8-44.2-23-5.9-2.2-17.4-6.5-23.4-11" fill="#ffbf9d"/></g></g><g><g><path d="M702.4,726.7c.1.3-1.1,1.1-3.4,1.6s-5.6.3-8.9-1.2-5.6-3.9-6.8-5.9-1.3-3.5-1-3.6c.6-.3,2.9,4.8,8.8,7.3c5.8,2.8,11.1,1.1,11.3,1.8Z" fill="#ff9a6c"/></g></g><g><g><path d="M718.2,715.8c.1.3-1.1,1-3.3,1.4s-5.4.1-8.5-1.3c-3.1-1.5-5.3-3.7-6.4-5.6s-1.3-3.3-1-3.4c.6-.3,2.9,4.4,8.5,6.9c5.4,2.7,10.6,1.4,10.7,2Z" fill="#ff9a6c"/></g></g></g><g><path d="M775.8,243.2c1.9,39.5,50.1,93.7,85.9,102.4c18.9,4.6,40.5,2.4,55.5,15.1c25.6,21.7,10.6,66.7,27.9,95.9c10.6,17.9,31.7,26.7,43.7,43.7c19.9,28.3,6.5,71-20.6,92-27.1,21.1-63.2,25.1-97.1,24.2-74.7-1.9-151.2-25.7-205.2-78.6-25.4-24.9-124.6-101.7-90-283.7" fill="#1a2e35"/></g><g><path d="M1045.4,526l-284-84.3c-23.5-10-41.4-12.4-41.4-12.4l-95.9.6c-13,0-25.3,2.8-36.8,7.7L328.8,523.5c-19.1,6.1-32.3,25.7-32.3,48v0c0,27.5,19.9,49.9,44.4,49.9h119.4c-.3,1.1-.5,1.7-.5,1.7L875,624.7c0-.1,0-.1,0-.2l158.5.4c24.5,0,44.4-22.5,44.4-50.4-.2-22.6-13.4-42.4-32.5-48.5Z" fill="#0e9700"/><g><g><path d="M988.5,556.7c0,.1-.9,0-2.6-.1-1.9-.2-4.3-.5-7.3-.8-6.3-.8-15.5-1.8-26.9-2.9-22.7-2.2-54.2-4.2-89.1-3.7-34.8.5-66.3,3.3-89,6.1-11.3,1.4-20.5,2.7-26.8,3.6-3,.4-5.4.8-7.3,1-1.7.2-2.6.3-2.6.2s.8-.3,2.5-.7c1.9-.4,4.3-.9,7.2-1.5c6.3-1.2,15.4-2.8,26.7-4.4c22.7-3.2,54.2-6.3,89.1-6.8c34.9-.4,66.5,1.8,89.3,4.4c11.4,1.3,20.5,2.6,26.8,3.7c2.9.5,5.3.9,7.3,1.3c1.8.3,2.7.5,2.7.6Z" fill="#1a2e35"/></g></g><g opacity="0.6"><g><path d="M921.8,487.7c0,0-.2.4-.8,1-.7.7-1.5,1.6-2.5,2.6-2.2,2.3-5.5,5.6-10,9.7s-10.1,9-17.3,13.9c-7.1,4.8-15.9,9.9-26.5,12.6-10.6,3-23.1,2.7-35.5-.7-12.5-3.3-24.8-9.7-37.4-16.5-12.6-6.7-25.7-14.5-40.5-19-14.6-4.8-31.4-4.7-46.3,2.4-14.9,6.7-27.7,17-41.6,24.4-3.4,1.9-7.1,3.4-10.6,5-3.6,1.3-7.2,2.7-10.9,3.6-7.3,2.1-14.7,3.2-21.9,3.8-29,2.1-55-7.3-72.7-20-8.9-6.4-15.7-13.6-21.9-19.5-6.2-6-11.9-10.7-17-13.9-10.3-6.4-17.6-6.1-17.4-6.5c0,0,1.7,0,4.9.6s7.7,2.1,13,5.2s11.1,7.8,17.4,13.7c6.3,5.8,13.2,12.9,22,19.1c17.5,12.3,43.1,21.4,71.6,19.2c7.1-.6,14.3-1.7,21.4-3.8c3.6-.9,7.1-2.3,10.7-3.6c3.4-1.6,7-3,10.4-4.9c13.7-7.3,26.4-17.6,41.7-24.5c15.2-7.3,33-7.5,47.9-2.4c15.2,4.6,28.2,12.5,40.8,19.3c12.5,6.9,24.7,13.2,36.9,16.5c12.1,3.4,24.2,3.8,34.6,1c10.4-2.6,19.1-7.4,26.2-12.1c7.1-4.8,12.8-9.5,17.4-13.5s8-7.2,10.3-9.4c1.1-1,2-1.8,2.7-2.5.6-.6.9-.8.9-.8Z" fill="#fff"/></g></g><g opacity="0.2"><polygon points="480.5,556.1 660,590 639.3,623.7 633.8,623.8"/></g><g opacity="0.6"><g><path d="M1023.9,520.7c.1,0,.1.9.1,2.8c0,1.8-.2,4.5-.8,7.9-1.1,6.7-3.9,16.6-10.8,26.9-6.8,10.2-18.3,20.6-33.9,26-7.7,2.7-16.3,4.3-25.3,3.9-8.9-.3-18-2.4-26.9-4.9-9-2.5-17.6-5.3-26.2-7.1-8.5-1.8-16.9-2.2-24.8-1.3-15.8,1.9-29.2,8.5-38.7,15.9-9.7,7.3-15.6,15.3-19.2,21-.9,1.4-1.6,2.7-2.3,3.9-.6,1.1-1,2.1-1.5,3-.8,1.6-1.3,2.4-1.4,2.4s.2-.9.9-2.6c.4-.9.8-1.9,1.3-3.1.6-1.2,1.4-2.5,2.2-4c3.4-5.9,9.2-14.3,19-21.8c9.6-7.7,23.2-14.6,39.5-16.7c8.1-1,16.9-.7,25.5,1.2c8.7,1.7,17.4,4.5,26.3,7s17.7,4.5,26.4,4.9c8.6.3,17-1.1,24.5-3.7c15.1-5.1,26.4-15.1,33.3-24.9c6.9-9.9,9.9-19.5,11.3-26.1c1.3-6.9,1.3-10.7,1.5-10.6Z" fill="#fff"/></g></g><g opacity="0.2"><path d="M727.1,428.6c-5.4,15,2.7,31.2,10.5,45.1c5.4,9.7,11,19.5,18.8,27.3s18.4,13.6,29.5,13.3c14.6-.5,27.6-11.2,42.2-10.4c9.9.6,18.6,6.4,26.8,12c14.2,9.6,28.8,19,45,24.9c16.1,5.9,34.1,8.1,50.6,3.2c16.5-5,31-17.9,35-34.6"/></g></g><g><path d="M739.5,624.8v-65.5c0,0-97.3,20.2-99.1,64.7l99.1.8Z" fill="#ffbf9d"/></g><g><g><path d="M329.1,615.6c0,0,320.1,122.1,318.4,118.8-1.7-3.2,51.5-97.2,51.5-97.2L440.6,528.4L329.1,615.6Z" fill="#0e9700"/></g><g><g><path d="M471.6,542c.1-.1,2.6.8,7,2.5c4.8,1.9,11.1,4.5,18.7,7.5c15.7,6.5,37.3,15.5,61.2,25.6c23.8,10.1,45.4,19.4,60.9,26.2c7.5,3.3,13.6,6.1,18.3,8.1c4.3,2,6.7,3.1,6.6,3.2s-2.6-.8-7-2.5c-4.8-1.9-11.1-4.5-18.7-7.5-15.7-6.5-37.4-15.5-61.2-25.6s-45.4-19.4-60.9-26.2c-7.5-3.3-13.6-6.1-18.3-8.1-4.3-1.9-6.7-3-6.6-3.2Z" fill="#1a2e35"/></g></g><g opacity="0.6"><g><path d="M549.3,590.4c0,0-.2,3.7-3,9.6-2.7,5.9-9,13.7-19.4,19.3-5.1,2.8-11.2,5.2-18,6.4s-14.3,1.3-21.9.3c-15.4-2-31.3-8.4-47.3-15.9s-31.2-14.7-46-18.2c-7.4-1.8-14.6-2.6-21.3-2.5-6.7.2-12.9,1.4-18.4,3.1-10.9,3.5-18.5,9.3-22.6,14.2-4.2,4.8-5.6,8.2-5.9,8.1c0,0,1.1-3.5,5.2-8.7c4-5.1,11.7-11.4,22.8-15.2c5.5-1.9,11.9-3.2,18.8-3.5s14.3.6,21.8,2.3c15.1,3.4,30.6,10.7,46.5,18.1s31.6,13.8,46.6,15.9c7.5,1.1,14.7,1.1,21.3,0s12.5-3.3,17.6-6c10.1-5.3,16.4-12.7,19.3-18.3c3.1-5.5,3.7-9.1,3.9-9Z" fill="#fff"/></g></g><g opacity="0.6"><g><path d="M682.4,668.2c-.1.4-7.2-.8-18.8-.9-5.8-.1-12.7.2-20.3,1-7.6,1-15.9,2.5-24.4,4.8-8.5,2.4-16.3,5.5-23.3,8.7-6.9,3.3-13,6.6-17.8,9.8-9.8,6.2-15.2,11-15.5,10.7-.1-.1,1.2-1.4,3.6-3.6s6.1-5.1,11-8.5c4.8-3.4,10.8-6.9,17.8-10.3c7-3.3,15-6.5,23.6-9c8.6-2.4,17.1-3.9,24.8-4.7c7.7-.7,14.7-.9,20.6-.5c5.8.3,10.6.8,13.8,1.5c3.1.5,4.9.9,4.9,1Z" fill="#fff"/></g></g></g><g><g><g><g><path d="M728.4,424.5c.7-17.5,1.7-33.3,1.7-33.3s39-4.9,40.7-44.8-2.3-131.6-2.3-131.6l-71.9-34.5-77.3,62.3l12.1,183c1.7,26.4,24.3,46.5,50.7,45.3v0c25.1-1.2,45.2-21.3,46.3-46.4Z" fill="#ffbf9d"/></g><g><g><path d="M761.8,286.9c0,2.8-2.1,5.1-4.9,5.2-2.7,0-5-2.2-5.1-5c0-2.8,2.1-5.1,4.9-5.2s5,2.2,5.1,5Z" fill="#1a2e35"/></g><g><g><path d="M766.6,276.2c-.6.7-4.3-2.5-9.7-2.7-5.3-.3-9.3,2.5-9.9,1.8-.3-.3.4-1.5,2.1-2.8s4.6-2.4,7.9-2.3c3.3.2,6.1,1.6,7.7,3c1.7,1.4,2.2,2.7,1.9,3Z" fill="#1a2e35"/></g></g></g><g><g><path d="M702.5,286.9c0,2.8-2.1,5.1-4.9,5.2-2.7,0-5-2.2-5.1-5c0-2.8,2.1-5.1,4.9-5.2s5.1,2.2,5.1,5Z" fill="#1a2e35"/></g><g><g><path d="M707.3,277.3c-.6.7-4.4-2.5-9.7-2.7-5.3-.3-9.3,2.5-9.9,1.8-.3-.3.4-1.5,2.1-2.8s4.6-2.4,7.9-2.3c3.3.2,6.1,1.6,7.7,3c1.7,1.4,2.2,2.7,1.9,3Z" fill="#1a2e35"/></g></g></g><g><g><path d="M727.4,323.3c0-.3,3.3-.8,8.7-1.3c1.4-.1,2.7-.3,2.9-1.3.3-1-.2-2.6-.8-4.4-1.2-3.6-2.5-7.4-3.9-11.3-5.4-16.1-9.2-29.3-8.6-29.5s5.4,12.7,10.8,28.7c1.3,4,2.5,7.7,3.7,11.4.5,1.7,1.4,3.6.6,5.8-.4,1.1-1.4,1.8-2.3,2-.9.3-1.6.2-2.3.3-5.4,0-8.8-.1-8.8-.4Z" fill="#1a2e35"/></g></g><g><path d="M709.9,328.8c-5.5-3.6,15.1,8.9,26,8.7c0,0-6.6,10-17.6,5.5-11.6-4.8-8.4-14.2-8.4-14.2Z" fill="#fff"/></g><g><path d="M730.1,391.2c0,0-26.1.7-51.7-16.9c0,0,12.2,29,51,26.7l.7-9.8Z" fill="#ff9a6c"/></g><g><path d="M577.4,281.9v0c-.1,34.5-9.2,125.7,53.7,138.4l-2.3-125.6c0,0,60.9-28.7,71.2-88.5l.4.3c3.9,9,10.8,28.4,6.6,44.2l57,14.1l6.6,6c0,0,20.3-44.5-18.9-84.8-39.2-40.4-72.6-11.1-93.6-13.6-14-1.7-62.4-1.4-82.1,82l1.4,27.5Z" fill="#1a2e35"/></g></g></g><g><g><g><path d="M630.4,296c-5.3-3.3-12.6-.6-16.8,4-6.6,7.2-7.8,18.9-2.7,27.3s16,12.8,25.5,10.3" fill="#ffbf9d"/></g><g><g><path d="M629.1,325.7c0,.3-1.8.6-4.6-.2-2.6-.7-6.8-2.8-8.3-7.4-.8-2.2-.6-4.6.2-6.5s2.2-3.2,3.4-4c2.5-1.6,4.4-1.5,4.4-1.2.1.4-1.6.8-3.4,2.5-1.9,1.6-3.7,4.9-2.4,8.4c1.2,3.5,4.4,5.6,6.7,6.6c2.4,1.1,4.1,1.4,4,1.8Z" fill="#ff9a6c"/></g></g></g><g><path d="M623.9,333.5c-2.9.7-4.4,4.7-2.6,7.1c1.7,2.4,6,2.2,7.5-.3s-.3-6.4-3.2-6.8" transform="translate(0-.440631)" fill="#0e9700"/></g></g></g><g><path d="M729.3,417.6c1.6,20,10.8,39.2,25.4,52.9s34.4,21.7,54.4,22.1c14.4.3,29.5-3.2,42.6,2.7c11.4,5.1,18.7,16.2,27.7,24.8c21.1,20.4,53.8,27.8,81.6,18.4c11.8-4,30.5-12.4,32.7-24.6c1.7-9.3-9.7-18.6-16.4-25.3s-15.4-11-24-15c-69.3-32.5-143.7-56.2-220.1-60.3" fill="#1a2e35"/></g></g></svg>
