<?xml version="1.0" encoding="utf-8"?>
<!-- Generator: Adobe Illustrator 25.0.0, SVG Export Plug-In . SVG Version: 6.00 Build 0)  -->
<svg version="1.1"
	 id="svg16" xmlns:cc="http://creativecommons.org/ns#" xmlns:dc="http://purl.org/dc/elements/1.1/" xmlns:inkscape="http://www.inkscape.org/namespaces/inkscape" xmlns:rdf="http://www.w3.org/1999/02/22-rdf-syntax-ns#" xmlns:sodipodi="http://sodipodi.sourceforge.net/DTD/sodipodi-0.dtd" xmlns:svg="http://www.w3.org/2000/svg"
	 xmlns="http://www.w3.org/2000/svg" xmlns:xlink="http://www.w3.org/1999/xlink" x="0px" y="0px" viewBox="0 0 526.2 100.1"
	 style="enable-background:new 0 0 526.2 100.1;" xml:space="preserve">
<style type="text/css">
	.st0{fill:#FFFFFF;}
</style>
<path class="st0" d="M0.8,40c0-0.3,0.1-0.9,0.2-1.2c0.4-3.2,1.5-6.1,3-8.9c3.4-6.3,8.5-10.5,15.5-12.3c0.4-0.1,0.5-0.3,0.7-0.6
	c1.2-3.6,3.2-6.7,5.9-9.5c3.3-3.3,7-5.8,11.7-6.7c3.3-0.6,6.8-0.8,10.2,0C53.3,2,58,4.6,62.1,8c0.1,0.1,0.4,0.2,0.6,0.2
	C65,8,67.3,8,69.6,8.2c6.2,0.7,11.6,3.1,16,7.6c3.8,3.8,6.1,8.4,6.8,13.8c0.5,3.6,0.3,7.1-0.4,10.7c0,0.2,0,0.4,0.1,0.6
	c1.7,2.4,3,4.9,3.9,7.7c1,3.1,1.7,6.2,1.5,9.4c-0.2,5.8-2,11.1-5.4,15.8c-1.6,2.2-3.6,4.1-5.9,5.6c-2,1.2-4.3,1.9-6.6,2.6
	c-0.3,0.1-0.6,0.3-0.7,0.6c-1.4,2.1-2.7,4.2-4,6.4c-2.2,3.4-5,6-8.6,7.8c-4.3,2.1-8.8,3-13.5,3.1c-3,0-6-0.4-8.8-1.5
	c-3.2-1.2-5.4-3.7-7.2-6.4c-0.2-0.3-0.3-0.3-0.6-0.3c-1.6,0.2-3.2,0.3-4.8,0.4c-5.3,0.2-10.2-1.2-14.6-4.2c-2-1.4-3.9-2.9-5.5-4.8
	c-2.4-3-3.8-6.4-4.7-10.1c-1-4.3-1-8.6,0.8-12.8c0.1-0.1,0-0.4-0.1-0.5C6.7,59,6,58.3,5.4,57.5c-2-2.5-3.2-5.5-4.1-8.6
	c-0.5-1.8-0.6-3.5-0.6-5.1 M0.7-0.5h0.1 M33.9,51.9c0-0.3,0-0.5,0-0.7c0-8.8,0-17.7,0-26.5c0-0.4,0.1-0.7,0.5-0.9
	c5.3-3.1,10.7-6.2,16-9.3c1.9-1.1,3.8-2.2,5.9-3.4c-1-0.6-1.9-1.2-2.9-1.7c-3.7-2-7.5-3.3-11.8-2.9C39.4,6.6,37.2,7,35.2,8
	c-3,1.5-5.3,3.8-7.2,6.4c-1.4,1.8-2.1,3.9-2.8,6C25.1,20.7,25,21,25,21.3c0,8.2,0,16.4,0,24.7c0,0.4,0.1,0.6,0.4,0.7
	c2.7,1.6,5.4,3.2,8,4.9C33.5,51.7,33.7,51.8,33.9,51.9z M42.3,89.2c1.3,1.7,2.7,3.2,4.7,3.8c1.1,0.3,2.3,0.6,3.5,0.7
	c4,0.4,7.9-0.1,11.6-1.6c2.4-0.9,4.6-2.3,6.3-4.3c2.2-2.7,3.9-5.6,5.6-8.6c0.1-0.2,0.1-0.4,0.1-0.6c0-8.3,0-16.6,0-24.9
	c0-0.4-0.1-0.6-0.4-0.7c-2.5-1.6-5-3.3-7.5-4.9c-0.1-0.1-0.3-0.2-0.5-0.3c0,0.3,0,0.5,0,0.7c0,1.6,0,3.3,0,4.9c0,4.6,0,9.1,0,13.7
	c0,2.5,0,5,0,7.5c0,0.4-0.1,0.6-0.4,0.8C60,78.6,54.7,81.8,49.4,85C47.1,86.3,44.7,87.7,42.3,89.2z M19,24c-0.3,0.1-0.4,0.2-0.6,0.2
	c-3.9,1.6-6.9,4.3-9,8C8,34.8,7,37.5,6.8,40.5c-0.1,2.1,0.2,4.1,0.5,6.2C7.6,48.5,8,50.3,9,51.9c1,1.6,2.1,3.2,3.7,4.2
	c7.3,4.6,14.6,9.2,21.8,13.8c0.3,0.2,0.5,0.2,0.8,0c2.1-1.2,4.2-2.4,6.3-3.6c0.7-0.4,1.5-0.8,2.3-1.3c-0.2-0.1-0.3-0.2-0.5-0.3
	c-7.9-4.8-15.9-9.6-23.8-14.4c-0.4-0.3-0.6-0.6-0.6-1c0-8.2,0-16.4,0-24.6C19,24.5,19,24.3,19,24z M59.8,62.8
	c-0.2,0.1-0.4,0.2-0.5,0.3c-8,4.6-16.1,9.1-24.1,13.7c-0.4,0.2-0.7,0.2-1,0c-5.2-3.3-10.5-6.6-15.8-9.9c-1.9-1.2-3.8-2.4-5.8-3.6
	c-0.2,0.9-0.4,1.7-0.5,2.5c-0.3,2.1,0,4.2,0.6,6.3c0.9,3.3,2.2,6.5,5,8.8c2.4,2,4.9,3.6,7.8,4.5c3,0.8,6,0.9,9,0.5
	c1.5-0.2,2.9-0.6,4.2-1.4c6.9-4.2,13.8-8.4,20.7-12.6c0.3-0.2,0.5-0.4,0.4-0.8c0-2.6,0-5.1,0-7.7C59.8,63.2,59.8,63,59.8,62.8z
	 M56.1,34c3.5,2.3,6.9,4.5,10.2,6.8c4.4,2.9,8.9,5.9,13.4,8.8c0.4,0.2,0.5,0.5,0.5,0.9c0,8.2,0,16.3,0,24.5c0,0.2,0,0.4,0,0.6
	c1.5-0.3,3.5-1.3,4.8-2.5c4.2-3.9,6.3-8.8,6.7-14.5c0.3-5.2-1.4-9.9-4.4-14.2c-0.3-0.4-0.7-0.9-1.1-1.1C79,39,71.8,34.7,64.7,30.4
	c-0.5-0.3-1.1-0.9-1.7-0.9c-0.6,0-1.1,0.6-1.7,1C59.6,31.6,57.9,32.8,56.1,34z M39.9,37.3c0.3-0.2,0.4-0.3,0.6-0.4
	c7.4-4.5,14.6-9.5,21.7-14.4c0.3-0.2,0.6-0.3,1,0c7.6,4.6,15.3,9.1,22.9,13.7c0.2,0.1,0.3,0.2,0.5,0.3c0-0.2,0.1-0.2,0.1-0.3
	c0.2-2.2,0.2-4.5-0.3-6.7c-1.4-6.6-5.3-11.2-11.5-13.8c-3.6-1.5-7.3-1.8-11.2-1.5c-0.7,0.1-1.4,0.2-2,0.5
	c-7.2,4.1-14.3,8.3-21.5,12.5c-0.3,0.2-0.5,0.4-0.5,0.8c0,2.9,0,5.8,0,8.7C39.9,36.9,39.9,37.1,39.9,37.3z M50.2,37.9
	c-3.2,2-6.5,4.1-9.7,6.1c-0.2,0.1-0.3,0.3-0.3,0.5c-0.1,3.6-0.2,7.1-0.3,10.7c0,0.2,0.1,0.4,0.3,0.5c2.9,1.8,5.9,3.6,8.9,5.4
	c0.1,0.1,0.4,0.1,0.5,0c3.3-1.7,6.6-3.5,9.9-5.3c0.1-0.1,0.3-0.3,0.3-0.5c0-3.8,0-7.7,0-11.5c0-0.2-0.1-0.4-0.3-0.5
	C56.5,41.7,53.3,39.8,50.2,37.9z"/>
<path class="st0" d="M354.8,40.7c0,9.4,0,18.7,0,28.2c-2.7,0-5.4,0-8.2,0c0-14.2,0-28.5,0-42.9c2.1,0,4.2,0,6.2,0
	c0.3,0,0.6,0.5,0.8,0.9c4.8,8.4,9.7,16.8,14.5,25.3c0.2,0.3,0.4,0.7,0.7,1.1c0.3-0.4,0.5-0.8,0.7-1.1c5.1-8.4,10.2-16.9,15.2-25.4
	c0.4-0.7,0.8-1,1.7-1c1.5,0.1,3,0,4.7,0c0,14.4,0,28.6,0,43c-2.7,0-5.3,0-8.1,0c0-9.5,0-19,0-28.4c-0.1,0-0.1,0-0.2-0.1
	c-0.2,0.3-0.4,0.7-0.6,1c-3.8,7.2-7.7,14.4-11.5,21.7c-0.6,1.1-1.4,0.9-2.3,1c-0.8,0.1-1.2-0.3-1.6-1c-3.7-7.2-7.5-14.4-11.3-21.5
	c-0.2-0.3-0.4-0.6-0.5-0.9C355,40.7,354.9,40.7,354.8,40.7z"/>
<path class="st0" d="M114.7,26c9.4,0,18.7,0,28.1,0c0,2,0,4,0,6.2c-7,0-13.9,0-21,0c0,4,0,7.9,0,11.9c5.9,0,11.7,0,17.7,0
	c0,2.1,0,4,0,6.1c-5.9,0-11.7,0-17.6,0c0,4.1,0,8.2,0,12.3c6.9,0,13.9,0,20.9,0c0,2.2,0,4.2,0,6.4c-9.3,0-18.7,0-28.1,0
	C114.7,54.6,114.7,40.4,114.7,26z"/>
<path class="st0" d="M188.4,69c-2.1,0-4,0-6.2,0c0-0.5,0-0.9,0-1.3c0-5.1,0-10.2,0-15.3c0-2.3-0.4-4.5-1.8-6.4
	c-1.8-2.4-5.5-2.4-7.2,0c-1.3,1.7-1.8,3.7-1.8,5.8c0,5.3,0,10.6,0,15.8c0,0.4,0,0.9,0,1.4c-2.1,0-4.1,0-6.2,0c0-0.4,0-0.9,0-1.4
	c0-5.8,0-11.5-0.1-17.3c0-2-0.8-3.9-2.4-5.2c-2-1.6-5.1-1.1-6.6,0.9c-1.2,1.6-1.7,3.5-1.7,5.5c0,5.4,0,10.8,0,16.2
	c0,0.4,0,0.8,0,1.3c-2.1,0-4.1,0-6.2,0c0-10,0-20,0-30c1.3,0,2.6,0,3.9,0c0.3,1.4,0.6,2.8,0.9,4.5c2.2-3.4,4.8-5.5,8.7-5.3
	c3.8,0.2,6.5,2,8.3,5.6c0.3-0.5,0.6-0.9,0.8-1.3c3.3-5.4,10-5.3,13.4-2.4c2.3,2,3.4,4.6,3.9,7.5c0.2,1.4,0.4,2.9,0.4,4.3
	c0,5.4,0,10.7,0,16.1C188.4,68.3,188.4,68.6,188.4,69z"/>
<path class="st0" d="M195.6,38.9c1.4,0,2.7,0,4,0c0.3,0,0.7,0.4,0.8,0.7c0.3,1.2,0.6,2.4,0.8,3.7c0.3-0.2,0.5-0.3,0.6-0.4
	c3.9-6.3,14.9-6.5,19.4,1c2.3,3.8,2.9,7.8,2.5,12.1c-0.3,3.6-1.4,6.9-3.8,9.7c-3.6,4.1-9.5,5.3-14.3,2.6c-1.1-0.6-2-1.7-3.1-2.7
	c0,2.4,0,4.8,0,7.2c0,2.4,0,4.8,0,7.3c-2.4,0-4.7,0-7,0C195.6,66.4,195.6,52.7,195.6,38.9z M216.8,53.8c0.1-2.4-0.5-4.7-1.8-6.7
	c-2.2-3.7-7.2-4.2-10-1.1c-3.4,3.9-3.7,11-0.7,15.2c2.8,3.9,8.3,3.6,10.7-0.5C216.3,58.5,216.9,56.3,216.8,53.8z"/>
<path class="st0" d="M457.9,68.9c-2.3,0-4.6,0-6.9,0c0-0.5,0-0.9,0-1.4c0-5.1,0-10.1,0-15.2c0-1.9-0.4-3.6-1.2-5.3
	c-1.9-3.9-7.5-3.9-9.7-0.4c-1,1.6-1.4,3.4-1.4,5.3c0,5.2,0,10.4,0,15.6c0,0.4,0,0.9,0,1.4c-2.4,0-4.7,0-7,0c0-10,0-20,0-30
	c1.5,0,2.9,0,4.4,0c0.3,1.4,0.6,2.8,1,4.3c0.3-0.3,0.5-0.4,0.6-0.6c2.8-3.8,6.6-5.1,11.1-4.4c4.4,0.7,7.1,3.6,8.4,7.7
	c0.4,1.4,0.7,2.9,0.8,4.4c0.1,6,0.1,12,0.1,18C458,68.5,458,68.7,457.9,68.9z"/>
<path class="st0" d="M426.8,53.4c0,6.7-2.2,11.4-7.5,14.5c-8,4.7-18.5,0-20.5-9.1c-1.1-4.9-0.9-9.7,1.9-14c2.9-4.6,7.3-7,12.7-6.6
	c5.6,0.4,9.5,3.5,12,8.5C426.5,49,426.8,51.5,426.8,53.4z M419.8,53.8c0.1-2.5-0.6-4.9-2-7.1c-2.5-3.9-7.7-4.1-10.5-0.4
	c-3,4-3.1,10.9-0.2,14.9c2.6,3.7,7.6,3.8,10.4,0.3C419.2,59.4,419.9,56.7,419.8,53.8z"/>
<path class="st0" d="M276.5,55c-6.4,0-12.8,0-19.1,0c0.3,3.5,1.1,6.7,4.5,8.2c3.9,1.8,7.5,0.7,10.9-1.7c0.7,1.5,1.6,2.9,2.2,4.5
	c0.1,0.3-0.5,1.1-0.9,1.3c-2,0.9-3.9,1.9-6,2.3c-5.1,1-9.8,0-13.5-4c-2.2-2.3-3.4-5.2-3.8-8.3c-0.7-5-0.1-9.7,2.9-13.9
	c3.2-4.4,7.5-5.9,12.7-5c4.7,0.8,7.7,3.9,9.3,8.3C276.4,49.3,276.6,52,276.5,55z M257.5,50.3c4,0,8,0,11.9,0
	c-0.3-4.2-2.2-6.5-5.5-6.7C260.4,43.5,258.2,45.8,257.5,50.3z"/>
<path class="st0" d="M489.8,55c-6.4,0-12.7,0-19.2,0c0.3,3.3,1,6.4,4.1,8.1c4,2.1,7.7,0.9,11.3-1.5c0.8,1.6,1.6,3.1,2.4,4.7
	c-0.3,0.3-0.6,0.7-1,0.9c-5.2,3.4-12.8,3.6-17.5,0.3c-3.7-2.6-5.6-6.4-6.1-10.8c-0.6-4.8,0.1-9.3,3.1-13.4c3.2-4.3,7.6-5.8,12.7-5
	c4.8,0.8,7.8,4,9.3,8.7C489.7,49.5,489.9,52.2,489.8,55z M470.8,50.2c4,0,8,0,12,0c-0.4-4.4-2.3-6.5-5.6-6.6
	C473.8,43.5,471.6,45.8,470.8,50.2z"/>
<path class="st0" d="M492.3,38.9c2.7,0,5.1,0,7.7,0c2.4,7.2,4.8,14.4,7.3,21.9c0.2-0.7,0.3-1.2,0.5-1.7c2.1-6.5,4.2-13,6.3-19.5
	c0.1-0.3,0.6-0.7,0.9-0.7c2.1-0.1,4.2,0,6.5,0c-0.1,0.5-0.2,0.8-0.4,1.2C516.1,53,511,66,506,78.9c-0.3,0.8-0.6,1.1-1.5,1.1
	c-2-0.1-4,0-6.1,0c0.1-0.3,0.2-0.7,0.4-1c1.6-3.7,3.2-7.4,4.7-11.2c0.2-0.5,0.2-1.2,0-1.7c-3.5-8.6-7.1-17.2-10.7-25.8
	C492.7,39.8,492.5,39.4,492.3,38.9z"/>
<path class="st0" d="M282.8,61.7c2.2,0.8,4.2,1.8,6.4,2.3c1.6,0.4,3.3,0.3,5,0.1c1.5-0.2,2.4-1.3,2.5-2.6c0.2-1.5-0.2-2.4-1.8-3.1
	c-2.5-1.1-5.1-2.1-7.7-3s-4.8-2.3-5.9-4.9c-1.9-4.9,0.2-10.6,6.4-11.9c4.9-1,9.8-0.2,14.5,1.6c0.2,0.1,0.5,0.2,0.7,0.4
	c0.1,0.1,0.2,0.2,0.4,0.3c-0.8,1.7-1.5,3.5-2.3,5.3c-0.4-0.2-0.8-0.4-1.1-0.6c-2.6-1.6-5.4-2.1-8.4-1.9c-0.9,0.1-1.9,0.3-2.6,0.8
	c-1.6,0.9-1.6,3.3,0,4.1s3.4,1.4,5.1,2c2.3,0.8,4.7,1.2,6.7,2.7c3,2.4,3.8,5.6,3.2,9.2c-0.6,3.4-2.8,5.6-6,6.5
	c-5.6,1.5-11,1-16.1-1.9c-1-0.5-1.2-1.1-0.6-2.1C281.7,63.9,282.3,62.6,282.8,61.7z"/>
<path class="st0" d="M317.8,29.8c0,3,0,6,0,9.1c2.4,0,4.8,0,7.2,0c0,1.9,0,3.6,0,5.5c-2.4,0-4.7,0-7.1,0c0,0.4-0.1,0.8-0.1,1.1
	c0,4.6,0,9.3,0,13.9c0,0.1,0,0.2,0,0.3c0.1,3.6,2.4,4.9,5.6,3.3c0.3-0.1,0.6-0.3,1-0.5c0.7,1.6,1.4,3.2,2.1,4.9
	c-2.5,1.7-5.2,2.5-8.2,2.2c-5.2-0.4-7.4-4.5-7.5-9.4c-0.1-4.8,0-9.7,0-14.5c0-0.4,0-0.8,0-1.4c-1.7,0-3.3,0-4.9,0c0-1.9,0-3.6,0-5.5
	c1.6,0,3.1,0,4.8,0c0-3.1,0-6.1,0-9.1C313.1,29.8,315.4,29.8,317.8,29.8z"/>
<path class="st0" d="M236.8,69c-2.4,0-4.7,0-7,0c0-10,0-20,0-30c1.5,0,2.9,0,4.4,0c0.3,1.5,0.6,3.1,1,5c2.1-4.1,5.4-5.5,9.6-5.1
	c0,1.9,0,3.8,0,5.7c-0.4,0-0.8,0-1.1,0.1c-3.8,0.1-6.8,2.8-6.9,6.6c-0.1,5.4-0.1,10.9-0.1,16.3C236.8,68,236.8,68.4,236.8,69z"/>
<path class="st0" d="M331.1,68.9c0-10,0-20,0-30c2.3,0,4.6,0,6.9,0c0,10,0,19.9,0,30C335.7,68.9,333.4,68.9,331.1,68.9z"/>
<path class="st0" d="M334.3,33.3c-2.3,0-4.2-1.8-4.2-4.1c0-2.4,1.9-4.3,4.3-4.3s4.4,1.9,4.4,4.2C338.8,31.6,336.9,33.3,334.3,33.3z"
	/>
</svg>
