<?xml version="1.0" encoding="utf-8"?>
<!-- Generator: Adobe Illustrator 25.0.0, SVG Export Plug-In . SVG Version: 6.00 Build 0)  -->
<svg version="1.1" id="Camada_1" xmlns="http://www.w3.org/2000/svg" xmlns:xlink="http://www.w3.org/1999/xlink" x="0px" y="0px"
	 viewBox="0 0 500 500" style="enable-background:new 0 0 500 500;" xml:space="preserve">
<style type="text/css">
	.st0{fill:#10AF00;}
</style>
<path class="st0" d="M343.3,7.6c3.8,1,7.6,1.8,11.3,3.1c23.9,7.8,40.4,29.4,41.8,54.7c0.1,1.9,0.1,3.8,0.1,5.7c0,120,0,240,0,360.1
	c0,26.5-11.6,46.2-35.7,58c-7.9,3.9-16.5,5.5-25.3,5.5c-56.9,0-113.9,0.2-170.8-0.1c-34.8-0.1-61.1-27.2-61.1-62.5
	c-0.1-55.7,0-111.3,0-167c0-65-0.1-130,0-195c0-30.5,18.8-54.3,47.8-61.1c1.8-0.4,3.6-0.9,5.4-1.4C218.9,7.6,281.1,7.6,343.3,7.6z
	 M368.6,370.6c0-94,0-187.5,0-281.2c-79.1,0-158,0-237,0c0,93.9,0,187.5,0,281.2C210.7,370.6,289.4,370.6,368.6,370.6z M277.8,427.7
	c0-15.4-11.9-27.4-27.3-27.6c-15.4-0.2-27.9,12.2-28,27.6c0,15.2,12.1,27.4,27.5,27.7C265.3,455.7,277.8,443.3,277.8,427.7z"/>
</svg>
