<?xml version="1.0" encoding="utf-8"?>
<!-- Generator: Adobe Illustrator 25.0.0, SVG Export Plug-In . SVG Version: 6.00 Build 0)  -->
<svg version="1.1" id="Camada_1" xmlns="http://www.w3.org/2000/svg" xmlns:xlink="http://www.w3.org/1999/xlink" x="0px" y="0px"
	 viewBox="0 0 500 500" style="enable-background:new 0 0 500 500;" xml:space="preserve">
<style type="text/css">
	.st0{fill:#10AF00;}
</style>
<path class="st0" d="M251.8,496.9c-44.7,0-89.4,0.1-134.2,0c-23.9-0.1-43.2-15.5-48.6-38.4c-0.4-1.7-0.7-3.4-0.8-5
	c-0.4-26.2-2.7-52.6,2.3-78.6c10.1-53.1,55.7-96.1,109.1-103.3c4.2-0.6,8.5-1.2,12.7-1.2c40.6,0,81.3-1.1,121.9,0.4
	c55.8,2.1,105.5,44.8,117.9,99.4c2,8.9,3.4,18.2,3.7,27.3c0.6,16.9,0.7,33.8,0.2,50.7c-0.8,28.5-22,48.8-50.5,48.9
	C340.9,497,296.3,496.9,251.8,496.9z"/>
<path class="st0" d="M374.1,127.7c-0.2,67.8-55.1,122.4-122.7,122.1c-67.4-0.3-121.9-55.2-121.8-122.6
	c0.2-67.8,55-122.3,122.7-122.1C319.8,5.4,374.3,60.2,374.1,127.7z"/>
</svg>
